<svg width="14px" height="14px" viewBox="0 0 14 14" version="1.1" xmlns="http://www.w3.org/2000/svg" xmlns:xlink="http://www.w3.org/1999/xlink"> <!-- Generator: Sketch 47.1 (45422) - http://www.bohemiancoding.com/sketch --> <desc>Created with Sketch.</desc> <defs></defs> <g id="Web-Application" stroke="none" stroke-width="1" fill="none" fill-rule="evenodd"> <g id="LiquidRe-–-US-Investors" transform="translate(-40.000000, -100.000000)" fill-rule="nonzero" fill="#1875F0"> <g id="Sidebar" transform="translate(40.000000, 99.000000)"> <g id="Links"> <g id="Active"> <g id="My-Portfolio"> <path d="M1.27501812,6.96590909 L2.02273364,13.3403636 C2.04596055,13.544 2.25595725,13.7272727 2.47263566,13.7272727 L11.5266751,13.7272727 C11.742399,13.7272727 11.9533502,13.5420909 11.9768953,13.3403636 L12.7246108,6.96590909 C12.7414742,6.82113636 12.6562028,6.72727273 12.4955235,6.72727273 L1.50410543,6.72727273 C1.34406249,6.72727273 1.25815475,6.82240909 1.27501812,6.96590909 Z M0.0109016361,7.11418182 C-0.0953694203,6.20831818 0.588074379,5.45454545 1.50410543,5.45454545 L12.4958417,5.45454545 C13.4115546,5.45454545 14.0956347,6.20609091 13.9890455,7.11418182 L13.24133,13.4886364 C13.1420588,14.3356364 12.3844798,15 11.5269933,15 L2.47295383,15 C1.61483096,15 0.858206496,14.3378636 0.758617152,13.4886364 L0.0109016361,7.11418182 Z M2.54549815,4.5 C2.19404974,4.5 1.90914452,4.2150903 1.90914452,3.86363636 C1.90914452,3.51218243 2.19404974,3.22727273 2.54549815,3.22727273 L11.454449,3.22727273 C11.8058974,3.22727273 12.0908026,3.51218243 12.0908026,3.86363636 C12.0908026,4.2150903 11.8058974,4.5 11.454449,4.5 L2.54549815,4.5 Z M4.13638223,2.27272727 C3.78493382,2.27272727 3.50002859,1.98781757 3.50002859,1.63636364 C3.50002859,1.2849097 3.78493382,1 4.13638223,1 L9.8635649,1 C10.2150133,1 10.4999185,1.2849097 10.4999185,1.63636364 C10.4999185,1.98781757 10.2150133,2.27272727 9.8635649,2.27272727 L4.13638223,2.27272727 Z" id="Shape"></path> </g> </g> </g> </g> </g> </g> </svg>
              