<?xml version="1.0" encoding="UTF-8"?>
<svg width="96px" height="24px" viewBox="0 0 96 24" version="1.1" xmlns="http://www.w3.org/2000/svg" xmlns:xlink="http://www.w3.org/1999/xlink">
    <!-- Generator: Sketch 49.3 (51167) - http://www.bohemiancoding.com/sketch -->
    <title>Logo</title>
    <desc>Created with Sketch.</desc>
    <defs></defs>
    <g id="LiquidRE-Emails" stroke="none" stroke-width="1" fill="none" fill-rule="evenodd">
        <g id="Email-Template-–-Confirmed-Seller" transform="translate(-262.000000, -96.000000)" fill="#FFFFFF">
            <g id="Logo" transform="translate(262.000000, 96.000000)">
                <path d="M10.1744422,18.2810591 L2.55578093,18.2810591 C0.851926978,18.2810591 0,17.4501018 0,15.7881874 L0,1.73523422 C0,1.24643585 0.219066937,1.00203666 0.657200811,1.00203666 L2.7505071,1.00203666 C3.15618674,1.00203666 3.35902637,1.23828933 3.35902637,1.7107943 L3.35902637,14.4439919 C3.35902637,15.0468433 3.65922909,15.3482688 4.25963489,15.3482688 L10.1744422,15.3482688 C10.6288034,15.3482688 10.8559838,15.5682281 10.8559838,16.0081466 L10.8559838,17.694501 C10.8559838,18.0855397 10.6288034,18.2810591 10.1744422,18.2810591 Z M16.137931,17.6211813 C16.137931,18.0773932 15.9269776,18.305499 15.505071,18.305499 L13.484787,18.305499 C13.0791074,18.305499 12.8762677,18.0773932 12.8762677,17.6211813 L12.8762677,6.69653768 C12.8762677,6.22403271 13.0872212,5.98778004 13.5091278,5.98778004 L15.5294118,5.98778004 C15.9350914,5.98778004 16.137931,6.21588582 16.137931,6.67209776 L16.137931,17.6211813 Z M16.2596349,2.19959267 C16.2596349,2.85132395 16.1135903,3.31975548 15.821501,3.60488798 C15.5294118,3.89002049 15.0831644,4.03258656 14.4827586,4.03258656 C13.3306289,4.03258656 12.7545639,3.42973511 12.7545639,2.22403259 C12.7545639,1.00203666 13.3306289,0.391038697 14.4827586,0.391038697 C15.0669371,0.391038697 15.5091279,0.525458248 15.8093306,0.794297352 C16.1095333,1.06313646 16.2596349,1.53156835 16.2596349,2.19959267 Z M30.2068966,23.2668024 C30.2068966,23.7556008 29.9959431,24 29.5740365,24 L27.6511156,24 C27.3914806,24 27.2129817,23.9470467 27.1156187,23.8411405 C27.0182556,23.7352343 26.969574,23.551935 26.969574,23.2912424 L26.969574,17.6700611 C26.0608521,18.2892056 24.7870181,18.598778 23.148073,18.598778 C21.6713995,18.598778 20.5922921,18.1099796 19.9107505,17.1323829 C19.2292089,16.1547862 18.8884381,14.5580449 18.8884381,12.3421589 C18.8884381,10.9898168 19.0141989,9.86965364 19.2657201,8.98167006 C19.5172413,8.09368648 19.9229209,7.40936876 20.4827586,6.9287169 C21.0425963,6.44806505 21.6795133,6.11812615 22.3935091,5.9389002 C23.1075049,5.75967426 24,5.6700611 25.0709939,5.6700611 C26.7910752,5.6700611 28.1703853,5.85743393 29.2089249,6.23217923 C29.6632861,6.37881874 29.9472615,6.60692452 30.0608519,6.91649695 C30.158215,7.14460273 30.2068966,7.45417515 30.2068966,7.84521385 L30.2068966,23.2668024 Z M26.969574,14.5906314 L26.969574,9.40936864 C26.969574,9.09979621 26.9208925,8.87983694 26.8235294,8.74949084 C26.7261663,8.61914473 26.5638944,8.52953157 26.336714,8.48065173 C25.8985801,8.39918546 25.4685597,8.35845214 25.0466531,8.35845214 C23.8782961,8.35845214 23.1075049,8.61914473 22.7342799,9.14052953 C22.3610549,9.66191434 22.1744422,10.6720979 22.1744422,12.1710794 C22.1744422,13.5723013 22.3083164,14.533605 22.5760649,15.0549898 C22.8438134,15.5763746 23.423935,15.8370672 24.31643,15.8370672 C25.3549697,15.8370672 26.1176471,15.6904277 26.6044625,15.3971487 C26.7667344,15.2830956 26.8640975,15.1771894 26.8965517,15.0794297 C26.9452333,14.9653767 26.969574,14.8024441 26.969574,14.5906314 Z M33.5659229,14.1507128 L33.5659229,6.67209776 C33.5659229,6.21588582 33.7687626,5.98778004 34.1744422,5.98778004 L36.2190669,5.98778004 C36.6247466,5.98778004 36.8275862,6.21588582 36.8275862,6.67209776 L36.8275862,13.7107943 C36.8275862,14.4114054 36.8843812,14.8839104 36.9979716,15.1283096 C37.1764705,15.6008145 37.7525355,15.8370672 38.7261663,15.8370672 C39.5862068,15.8370672 40.2271807,15.771894 40.6490872,15.6415479 C40.8600407,15.5763746 41.0141988,15.4949084 41.1115619,15.3971487 C41.2251523,15.2830956 41.2819473,15.0631363 41.2819473,14.7372709 L41.2819473,6.67209776 C41.2819473,6.21588582 41.4929007,5.98778004 41.9148073,5.98778004 L43.9350913,5.98778004 C44.3407709,5.98778004 44.5436105,6.21588582 44.5436105,6.67209776 L44.5436105,16.2769857 C44.5436105,17.0590631 44.2515213,17.5804479 43.6673428,17.8411405 C42.4827585,18.3462323 40.6653145,18.598778 38.2150101,18.598778 C35.7647058,18.598778 34.3204868,18.0448064 33.8823529,16.9368635 C33.6713995,16.3991853 33.5659229,15.4704684 33.5659229,14.1507128 Z M51.5294118,17.6211813 C51.5294118,18.0773932 51.3184583,18.305499 50.8965517,18.305499 L48.8762677,18.305499 C48.4705881,18.305499 48.2677485,18.0773932 48.2677485,17.6211813 L48.2677485,6.69653768 C48.2677485,6.22403271 48.4787019,5.98778004 48.9006085,5.98778004 L50.9208925,5.98778004 C51.3265721,5.98778004 51.5294118,6.21588582 51.5294118,6.67209776 L51.5294118,17.6211813 Z M51.6511156,2.19959267 C51.6511156,2.85132395 51.505071,3.31975548 51.2129817,3.60488798 C50.9208925,3.89002049 50.4746452,4.03258656 49.8742394,4.03258656 C48.7221097,4.03258656 48.1460446,3.42973511 48.1460446,2.22403259 C48.1460446,1.00203666 48.7221097,0.391038697 49.8742394,0.391038697 C50.4584178,0.391038697 50.9006086,0.525458248 51.2008114,0.794297352 C51.5010141,1.06313646 51.6511156,1.53156835 51.6511156,2.19959267 Z M65.6470588,16.2769857 C65.6470588,16.6843178 65.6146046,16.9613035 65.5496957,17.107943 C65.4198784,17.401222 65.1277892,17.6456212 64.673428,17.8411405 C64.1866126,18.0529533 63.4645029,18.2321792 62.5070994,18.3788187 C61.5496959,18.5254582 60.63286,18.598778 59.7565923,18.598778 C57.7931033,18.598778 56.3894525,18.154786 55.5456389,17.2668024 C54.7018254,16.3788189 54.2799189,14.7535643 54.2799189,12.3910387 C54.2799189,9.83299377 54.750507,8.07331963 55.6916836,7.11201629 C56.6328602,6.15071296 58.1582149,5.6700611 60.2677485,5.6700611 C61.2576066,5.6700611 61.9716024,5.77596729 62.4097363,5.98778004 L62.4097363,0.733197556 C62.4097363,0.244399185 62.653144,0 63.1399594,0 L65.0141988,0 C65.2413792,0 65.4036511,0.0488798371 65.5010142,0.146639511 C65.5983773,0.244399185 65.6470588,0.439918534 65.6470588,0.733197556 L65.6470588,16.2769857 Z M62.4097363,14.688391 L62.4097363,9.38492872 C62.4097363,8.99389002 62.2880325,8.74134432 62.0446247,8.62729124 C61.7687628,8.49694513 61.2738335,8.43177189 60.5598377,8.43177189 C59.3590265,8.43177189 58.5638945,8.70875751 58.1744422,9.26272912 C57.7849899,9.81670074 57.5902637,10.8676172 57.5902637,12.4154786 C57.5902637,13.7026478 57.764706,14.6069248 58.1135903,15.1283096 C58.4624745,15.6496944 59.0831642,15.910387 59.9756592,15.910387 C60.8843812,15.910387 61.5496959,15.8126273 61.9716024,15.6171079 C62.1338744,15.5519347 62.2555782,15.437882 62.336714,15.2749491 C62.3853955,15.1283096 62.4097363,14.9327902 62.4097363,14.688391 Z M72.7545639,17.5723014 C72.7545639,18.0610998 72.5192697,18.305499 72.0486815,18.305499 L70.0283976,18.305499 C69.606491,18.305499 69.3955375,18.0610998 69.3955375,17.5723014 L69.3955375,3.81262729 C69.3955375,2.85132395 69.5983772,2.14663939 70.0040568,1.69857434 C70.4097364,1.25050929 71.1075049,1.02647658 72.0973631,1.02647658 L73.9472617,1.02647658 C76.2515214,1.02647658 77.89858,1.22199593 78.8884381,1.61303462 C80.5436105,2.29735234 81.3711968,3.82077381 81.3711968,6.18329939 C81.3711968,8.562118 80.4543609,10.1344197 78.6206897,10.9002037 L81.9310345,16.9124236 C82.1582149,17.3360488 82.2718053,17.6293278 82.2718053,17.7922607 C82.2718053,18.0529533 82.1501014,18.1995928 81.9066937,18.2321792 C81.5334687,18.3136455 80.7221094,18.3543788 79.4726166,18.3543788 C79.0993916,18.3543788 78.8154158,18.167006 78.6206897,17.7922607 L75.4320487,11.5112016 C75.1561867,11.527495 74.709939,11.5356415 74.0933063,11.5356415 L72.7545639,11.5356415 L72.7545639,17.5723014 Z M72.7545639,8.84725051 L74.1906694,8.84725051 C75.2616633,8.84725051 76.081136,8.74949084 76.6490872,8.55397149 C77.4929007,8.22810603 77.9148073,7.49490847 77.9148073,6.35437882 C77.9148073,5.11608949 77.5091277,4.3503055 76.6977688,4.05702648 C76.2758622,3.91038697 75.5456391,3.83706721 74.5070994,3.83706721 L73.5578093,3.83706721 C73.0223124,3.83706721 72.7545639,4.10590631 72.7545639,4.64358452 L72.7545639,8.84725051 Z M95.3184584,18.2810591 L87.6024341,18.2810591 C86.7261663,18.2810591 86.0730224,18.0814663 85.643002,17.6822811 C85.2129816,17.2830958 84.9979716,16.6109981 84.9979716,15.6659878 L84.9979716,3.71486762 C84.9979716,1.92260705 85.8661259,1.02647658 87.6024341,1.02647658 L94.9046653,1.02647658 C95.3590265,1.02647658 95.5862069,1.24643585 95.5862069,1.68635438 L95.5862069,3.39714868 C95.5862069,3.77189397 95.3590265,3.9592668 94.9046653,3.9592668 L89.1359026,3.9592668 C88.616633,3.9592668 88.356998,4.26069234 88.356998,4.86354379 L88.356998,7.86965377 L94.296146,7.86965377 C94.7505072,7.86965377 94.9776876,8.08961303 94.9776876,8.52953157 L94.9776876,10.2403259 C94.9776876,10.6313646 94.7505072,10.8268839 94.296146,10.8268839 L88.356998,10.8268839 L88.356998,14.395112 C88.356998,14.7372709 88.4259634,14.9816701 88.5638945,15.1283096 C88.7018257,15.2749491 88.9411765,15.3482688 89.2819473,15.3482688 L95.3184584,15.3482688 C95.7728196,15.3482688 96,15.5682281 96,16.0081466 L96,17.694501 C96,18.0855397 95.7728196,18.2810591 95.3184584,18.2810591 Z" id="LiquidRE"></path>
            </g>
        </g>
    </g>
</svg>