<?xml version="1.0" encoding="UTF-8"?>
<svg width="14px" height="14px" viewBox="0 0 14 14" version="1.1" xmlns="http://www.w3.org/2000/svg" xmlns:xlink="http://www.w3.org/1999/xlink">
    <!-- Generator: Sketch 49.3 (51167) - http://www.bohemiancoding.com/sketch -->
    <title>4-tpeg-token</title>
    <desc>Created with Sketch.</desc>
    <defs></defs>
    <g id="LiquidRe-App" stroke="none" stroke-width="1" fill="none" fill-rule="evenodd">
        <g id="LiquidRe-–-Transfers" transform="translate(-40.000000, -268.000000)" fill="#1875F0" fill-rule="nonzero">
            <g id="Sidebar" transform="translate(40.000000, 99.000000)">
                <g id="Links">
                    <g id="TPEG-Token" transform="translate(0.000000, 168.000000)">
                        <path d="M7,15 C3.13409091,15 0,11.8659091 0,8 C0,4.13409091 3.13409091,1 7,1 C10.8659091,1 14,4.13409091 14,8 C14,11.8659091 10.8659091,15 7,15 Z M7,13.7272727 C10.1630455,13.7272727 12.7272727,11.1630455 12.7272727,8 C12.7272727,4.83695455 10.1630455,2.27272727 7,2.27272727 C3.83695455,2.27272727 1.27272727,4.83695455 1.27272727,8 C1.27272727,11.1630455 3.83695455,13.7272727 7,13.7272727 Z M8.51203852,6.32159624 L7.47191011,6.32159624 L7.47191011,9.89302482 C7.47191011,10.0987044 7.42803682,10.251285 7.34028892,10.3507713 C7.25254103,10.4502576 7.13911252,10.5 7,10.5 C6.85874729,10.5 6.74371366,10.4496987 6.65489567,10.3490946 C6.56607767,10.2484904 6.52166934,10.0964687 6.52166934,9.89302482 L6.52166934,6.32159624 L5.48154093,6.32159624 C5.31888629,6.32159624 5.19796722,6.28414971 5.1187801,6.20925553 C5.03959297,6.13436135 5,6.03543545 5,5.91247485 C5,5.78504296 5.04119809,5.68444034 5.12359551,5.61066398 C5.20599292,5.53688763 5.32530687,5.5 5.48154093,5.5 L8.51203852,5.5 C8.67683335,5.5 8.79935754,5.53800543 8.87961477,5.61401744 C8.95987199,5.69002944 9,5.78951425 9,5.91247485 C9,6.03543545 8.95933695,6.13436135 8.87800963,6.20925553 C8.79668231,6.28414971 8.67469316,6.32159624 8.51203852,6.32159624 Z" id="4-tpeg-token"></path>
                    </g>
                </g>
            </g>
        </g>
    </g>
</svg>