<?xml version="1.0" encoding="UTF-8"?>
<svg width="14px" height="14px" viewBox="0 0 14 14" version="1.1" xmlns="http://www.w3.org/2000/svg" xmlns:xlink="http://www.w3.org/1999/xlink">
    <!-- Generator: Sketch 49.3 (51167) - http://www.bohemiancoding.com/sketch -->
    <title>5-rent-token</title>
    <desc>Created with Sketch.</desc>
    <defs></defs>
    <g id="LiquidRe-App" stroke="none" stroke-width="1" fill="none" fill-rule="evenodd">
        <g id="LiquidRe-–-Transfers" transform="translate(-40.000000, -324.000000)" fill="#1875F0" fill-rule="nonzero">
            <g id="Sidebar" transform="translate(40.000000, 99.000000)">
                <g id="Links">
                    <g id="RENT-Token" transform="translate(0.000000, 224.000000)">
                        <path d="M7,15 C3.13409091,15 0,11.8659091 0,8 C0,4.13409091 3.13409091,1 7,1 C10.8659091,1 14,4.13409091 14,8 C14,11.8659091 10.8659091,15 7,15 Z M7,13.7272727 C10.1630455,13.7272727 12.7272727,11.1630455 12.7272727,8 C12.7272727,4.83695455 10.1630455,2.27272727 7,2.27272727 C3.83695455,2.27272727 1.27272727,4.83695455 1.27272727,8 C1.27272727,11.1630455 3.83695455,13.7272727 7,13.7272727 Z M6.3147541,8.31354795 L5.97377049,8.31354795 L5.97377049,9.89302482 C5.97377049,10.10094 5.9289622,10.2540795 5.83934426,10.352448 C5.74972633,10.4508165 5.63278761,10.5 5.48852459,10.5 C5.33333256,10.5 5.21311518,10.4485809 5.12786885,10.3457411 C5.04262252,10.2429013 5,10.0919974 5,9.89302482 L5,6.11032864 C5,5.89570651 5.04699407,5.74033135 5.14098361,5.64419852 C5.23497315,5.54806569 5.3868842,5.5 5.59672131,5.5 L7.18032787,5.5 C7.3989082,5.5 7.58579157,5.50950136 7.74098361,5.52850436 C7.89617564,5.54750736 8.03606495,5.5860717 8.16065574,5.64419852 C8.31147616,5.70903229 8.44480816,5.80181026 8.56065574,5.92253521 C8.67650331,6.04326016 8.76448057,6.18354492 8.82459016,6.3433937 C8.88469975,6.50324247 8.9147541,6.67259021 8.9147541,6.85144199 C8.9147541,7.21808813 8.81366221,7.51095352 8.61147541,7.73004695 C8.40928861,7.94914038 8.1027343,8.10451553 7.69180328,8.19617706 C7.86448174,8.29007425 8.02950741,8.42868229 8.18688525,8.61200537 C8.34426308,8.79532844 8.48469884,8.99038573 8.60819672,9.1971831 C8.73169461,9.40398047 8.82786851,9.59065421 8.89672131,9.75720993 C8.96557411,9.92376564 9,10.0383408 9,10.100939 C9,10.1657727 8.97978162,10.2300466 8.93934426,10.2937626 C8.8989069,10.3574785 8.8437162,10.4077798 8.77377049,10.444668 C8.70382479,10.4815562 8.62295128,10.5 8.53114754,10.5 C8.42185738,10.5 8.33005502,10.4737315 8.2557377,10.4211938 C8.18142039,10.3686561 8.11748661,10.3021466 8.06393443,10.2216633 C8.01038225,10.14118 7.93770538,10.0226925 7.84590164,9.86619718 L7.4557377,9.20221328 C7.3158463,8.95852773 7.19071093,8.7729718 7.08032787,8.64553991 C6.9699448,8.51810801 6.85792407,8.43091908 6.7442623,8.38397049 C6.63060052,8.3370219 6.48743256,8.31354795 6.3147541,8.31354795 Z M6.87213115,6.24782025 L5.97377049,6.24782025 L5.97377049,7.59926224 L6.84590164,7.59926224 C7.07978259,7.59926224 7.27650193,7.57858281 7.43606557,7.53722334 C7.59562921,7.49586387 7.71748592,7.42544204 7.80163934,7.32595573 C7.88579277,7.22646943 7.92786885,7.0895381 7.92786885,6.91515761 C7.92786885,6.77878313 7.89398941,6.6586189 7.82622951,6.5546613 C7.75846961,6.45070371 7.66448148,6.37301613 7.5442623,6.32159624 C7.43060052,6.27241201 7.20655905,6.24782025 6.87213115,6.24782025 Z" id="5-rent-token"></path>
                    </g>
                </g>
            </g>
        </g>
    </g>
</svg>