<?xml version="1.0" encoding="UTF-8"?>
<svg width="14px" height="14px" viewBox="0 0 14 14" version="1.1" xmlns="http://www.w3.org/2000/svg" xmlns:xlink="http://www.w3.org/1999/xlink">
    <!-- Generator: Sketch 49.3 (51167) - http://www.bohemiancoding.com/sketch -->
    <title>9-support</title>
    <desc>Created with Sketch.</desc>
    <defs></defs>
    <g id="LiquidRe-App" stroke="none" stroke-width="1" fill="none" fill-rule="evenodd">
        <g id="LiquidRe-–-Transfers" transform="translate(-40.000000, -548.000000)" fill="#1875F0" fill-rule="nonzero">
            <g id="Sidebar" transform="translate(40.000000, 99.000000)">
                <g id="Links">
                    <g id="Support" transform="translate(0.000000, 448.000000)">
                        <path d="M11.3537589,5.7806639 C10.9197719,3.77521058 9.13534787,2.27272727 7,2.27272727 C4.86465213,2.27272727 3.08022807,3.77521058 2.64624109,5.7806639 C2.9498015,5.82896715 3.18181818,6.09193383 3.18181818,6.40909091 L3.18181818,9.59090909 C3.18181818,9.94236302 2.89690848,10.2272727 2.54545455,10.2272727 L1.59090909,10.2272727 C0.712670328,10.2272727 0,9.51364599 0,8.63625873 L0,7.36374127 C0,6.56765567 0.585666801,5.90776373 1.34887035,5.79105722 C1.79573347,3.07331779 4.15574209,1 7,1 C9.84426167,1 12.2042727,3.07332324 12.6511314,5.79106791 C13.4146161,5.90788633 14,6.56855775 14,7.36374127 L14,8.63625873 C14,9.48271531 13.3378743,10.1751981 12.5042295,10.224469 C11.9207537,12.2503832 10.2490523,13.8152865 8.162779,14.2455255 C7.96431838,14.6901294 7.51834628,15 7,15 C6.29709214,15 5.72727273,14.4301806 5.72727273,13.7272727 C5.72727273,13.0243649 6.29709214,12.4545455 7,12.4545455 C7.42033428,12.4545455 7.79307665,12.6583107 8.0248365,12.9724505 C9.48917203,12.6276748 10.6747092,11.5603068 11.1844965,10.1672982 C10.9680584,10.0657175 10.8181818,9.84581606 10.8181818,9.59090909 L10.8181818,6.40909091 C10.8181818,6.09193383 11.0501985,5.82896715 11.3537589,5.7806639 Z M1.59090909,7.04545455 C1.4157895,7.04545455 1.27272727,7.18842153 1.27272727,7.36374127 L1.27272727,8.63625873 C1.27272727,8.81111994 1.41596056,8.95454545 1.59090909,8.95454545 L1.90909091,8.95454545 L1.90909091,7.04545455 L1.59090909,7.04545455 Z M12.0909091,7.04545455 L12.0909091,8.95454545 L12.4090909,8.95454545 C12.5842105,8.95454545 12.7272727,8.81157847 12.7272727,8.63625873 L12.7272727,7.36374127 C12.7272727,7.18888006 12.5840394,7.04545455 12.4090909,7.04545455 L12.0909091,7.04545455 Z" id="9-support"></path>
                    </g>
                </g>
            </g>
        </g>
    </g>
</svg>