<?xml version="1.0" encoding="UTF-8" standalone="no"?>
<svg width="16px" height="10px" viewBox="0 0 16 10" version="1.1" xmlns="http://www.w3.org/2000/svg" xmlns:xlink="http://www.w3.org/1999/xlink">
    <!-- Generator: Sketch 48.2 (47327) - http://www.bohemiancoding.com/sketch -->
    <title>applicant-blue</title>
    <desc>Created with Sketch.</desc>
    <defs></defs>
    <g id="LiquidRe-–-All-IREOs" stroke="none" stroke-width="1" fill="none" fill-rule="evenodd" transform="translate(-1040.000000, -557.000000)">
        <g id="Dashboard" transform="translate(250.000000, 83.000000)" fill="#1875F0" fill-rule="nonzero">
            <g id="IREOs" transform="translate(2.000000, 98.000000)">
                <g id="IREO-–-2" transform="translate(0.000000, 232.000000)">
                    <g id="Progress-Bar" transform="translate(528.000000, 139.000000)">
                        <g id="Investors" transform="translate(233.000000, 0.000000)">
                            <path d="M32.0909091,5 C33.2958909,5 34.2727273,5.95939286 34.2727273,7.14285714 C34.2727273,8.32632857 33.2958909,9.28571429 32.0909091,9.28571429 C30.8859273,9.28571429 29.9090909,8.32632857 29.9090909,7.14285714 C29.9090909,5.95939286 30.8859273,5 32.0909091,5 Z M37.9090909,5.00000714 C39.1140364,5.00000714 40.0909091,5.95939286 40.0909091,7.14286429 C40.0909091,8.32632857 39.1140364,9.28571429 37.9090909,9.28571429 C36.7040727,9.28571429 35.7272727,8.32632857 35.7272727,7.14286429 C35.7272727,5.95939286 36.7040727,5.00000714 37.9090909,5.00000714 Z M32.0909091,10.7142857 C34.9025455,10.7142857 37.1818182,11.6736429 37.1818182,12.8571429 L37.1818182,15 L27,15 L27,12.8571429 C27,11.6736429 29.27928,10.7142857 32.0909091,10.7142857 Z M37.9090909,10.7142857 C40.7207273,10.7142857 43,11.6736429 43,12.8571429 L43,15 L38.6363636,15 L38.6363636,12.8571429 C38.6363636,12.0589286 38.1565091,11.3219286 37.3455273,10.7272857 L37.9090909,10.7142857 Z" id="applicant-blue"></path>
                        </g>
                    </g>
                </g>
            </g>
        </g>
    </g>
</svg>