<svg width="42" height="32" viewBox="0 0 79 75" version="1.1" xmlns="http://www.w3.org/2000/svg" xmlns:xlink="http://www.w3.org/1999/xlink">
<g id="Canvas" fill="none">
<g id="Vector" transform="translate(4.09253 3)">
<mask id="path-1-outside-1" maskUnits="userSpaceOnUse" x="-4" y="-3" width="79" height="75" fill="black">
<rect fill="white" x="-4" y="-3" width="79" height="75"/>
<path d="M 38.0882 1.98815C 36.9279 0.876592 35.0978 0.876593 33.9375 1.98815L 31.9249 3.91623C 30.6928 5.0966 30.6919 7.06557 31.923 8.24704L 49.4033 25.023C 51.3531 26.8943 50.0286 30.1875 47.326 30.1875L 3 30.1875C 1.34314 30.1875 0 31.5306 0 33.1875L 0 35.8125C 0 37.4694 1.34315 38.8125 3 38.8125L 47.326 38.8125C 50.0286 38.8125 51.3531 42.1057 49.4033 43.977L 31.923 60.753C 30.6919 61.9344 30.6928 63.9034 31.9249 65.0838L 33.9375 67.0119C 35.0978 68.1234 36.9279 68.1234 38.0882 67.0119L 69.7644 36.6663C 70.9973 35.4852 70.9973 33.5148 69.7644 32.3337L 38.0882 1.98815Z"/>
</mask>
<path d="M 38.0882 1.98815C 36.9279 0.876592 35.0978 0.876593 33.9375 1.98815L 31.9249 3.91623C 30.6928 5.0966 30.6919 7.06557 31.923 8.24704L 49.4033 25.023C 51.3531 26.8943 50.0286 30.1875 47.326 30.1875L 3 30.1875C 1.34314 30.1875 0 31.5306 0 33.1875L 0 35.8125C 0 37.4694 1.34315 38.8125 3 38.8125L 47.326 38.8125C 50.0286 38.8125 51.3531 42.1057 49.4033 43.977L 31.923 60.753C 30.6919 61.9344 30.6928 63.9034 31.9249 65.0838L 33.9375 67.0119C 35.0978 68.1234 36.9279 68.1234 38.0882 67.0119L 69.7644 36.6663C 70.9973 35.4852 70.9973 33.5148 69.7644 32.3337L 38.0882 1.98815Z" fill="#C7C7C7"/>
<g mask="url(#path-1-outside-1)">
<path d="M 69.7644 36.6663L 72.5315 39.5548L 69.7644 36.6663ZM 69.7644 32.3337L 72.5315 29.4452L 69.7644 32.3337ZM 33.9375 67.0119L 36.7046 64.1234L 33.9375 67.0119ZM 38.0882 67.0119L 35.3211 64.1234L 38.0882 67.0119ZM 31.923 60.753L 29.1533 57.867L 31.923 60.753ZM 31.9249 65.0838L 34.692 62.1953L 31.9249 65.0838ZM 49.4033 43.977L 46.6336 41.091L 49.4033 43.977ZM 31.9249 3.91623L 29.1578 1.02778L 31.9249 3.91623ZM 31.923 8.24704L 29.1533 11.133L 31.923 8.24704ZM 38.0882 1.98815L 35.3211 4.87659L 38.0882 1.98815ZM 31.1704 -0.900301L 29.1578 1.02778L 34.692 6.80467L 36.7046 4.87659L 31.1704 -0.900301ZM 29.1533 11.133L 46.6336 27.909L 52.173 22.1371L 34.6927 5.36107L 29.1533 11.133ZM 47.326 26.1875L 3 26.1875L 3 34.1875L 47.326 34.1875L 47.326 26.1875ZM -4 33.1875L -4 35.8125L 4 35.8125L 4 33.1875L -4 33.1875ZM 3 42.8125L 47.326 42.8125L 47.326 34.8125L 3 34.8125L 3 42.8125ZM 46.6336 41.091L 29.1533 57.867L 34.6927 63.6389L 52.173 46.8629L 46.6336 41.091ZM 29.1578 67.9722L 31.1704 69.9003L 36.7046 64.1234L 34.692 62.1953L 29.1578 67.9722ZM 40.8553 69.9003L 72.5315 39.5548L 66.9973 33.7779L 35.3211 64.1234L 40.8553 69.9003ZM 72.5315 29.4452L 40.8553 -0.900302L 35.3211 4.87659L 66.9973 35.2221L 72.5315 29.4452ZM 72.5315 39.5548C 75.4083 36.7989 75.4083 32.2011 72.5315 29.4452L 66.9973 35.2221C 66.5863 34.8284 66.5863 34.1716 66.9973 33.7779L 72.5315 39.5548ZM 31.1704 69.9003C 33.8778 72.4939 38.1479 72.4939 40.8553 69.9003L 35.3211 64.1234C 35.7079 63.7529 36.3179 63.7529 36.7046 64.1234L 31.1704 69.9003ZM 29.1533 57.867C 26.2808 60.6238 26.2828 65.218 29.1578 67.9722L 34.692 62.1953C 35.1027 62.5888 35.103 63.2451 34.6927 63.6389L 29.1533 57.867ZM 47.326 42.8125C 46.4252 42.8125 45.9836 41.7148 46.6336 41.091L 52.173 46.8629C 56.7227 42.4966 53.632 34.8125 47.326 34.8125L 47.326 42.8125ZM -4 35.8125C -4 39.6785 -0.865993 42.8125 3 42.8125L 3 34.8125C 3.55228 34.8125 4 35.2602 4 35.8125L -4 35.8125ZM 3 26.1875C -0.865996 26.1875 -4 29.3215 -4 33.1875L 4 33.1875C 4 33.7398 3.55229 34.1875 3 34.1875L 3 26.1875ZM 46.6336 27.909C 45.9836 27.2852 46.4252 26.1875 47.326 26.1875L 47.326 34.1875C 53.632 34.1875 56.7227 26.5034 52.173 22.1371L 46.6336 27.909ZM 29.1578 1.02778C 26.2828 3.78198 26.2808 8.37625 29.1533 11.133L 34.6927 5.36107C 35.103 5.75489 35.1027 6.41122 34.692 6.80467L 29.1578 1.02778ZM 36.7046 4.87659C 36.3179 5.24711 35.7079 5.24711 35.3211 4.87659L 40.8553 -0.900302C 38.1479 -3.49393 33.8778 -3.49392 31.1704 -0.900301L 36.7046 4.87659Z" fill="#C7C7C7"/>
</g>
</g>
</g>
</svg>
