<?xml version="1.0" encoding="UTF-8" standalone="no"?>
<svg width="15px" height="14px" viewBox="0 0 15 14" version="1.1" xmlns="http://www.w3.org/2000/svg" xmlns:xlink="http://www.w3.org/1999/xlink">
    <!-- Generator: Sketch 48.2 (47327) - http://www.bohemiancoding.com/sketch -->
    <title>balance-icon</title>
    <desc>Created with Sketch.</desc>
    <defs></defs>
    <g id="LiquidRe-–-My-Portfolio" stroke="none" stroke-width="1" fill="none" fill-rule="evenodd" transform="translate(-741.000000, -114.000000)">
        <g id="Dashboard" transform="translate(250.000000, 83.000000)" fill="#1875F0" fill-rule="nonzero">
            <g id="Title-Block">
                <g id="Text" transform="translate(24.000000, 20.000000)">
                    <g id="Title">
                        <g id="Balance" transform="translate(467.000000, 0.000000)">
                            <path d="M14.2105263,22.6666667 L14.2105263,23.4444444 C14.2105263,24.3 13.5,25 12.6315789,25 L1.57894737,25 C0.702631579,25 0,24.3 0,23.4444444 L0,12.5555556 C0,11.7 0.702631579,11 1.57894737,11 L12.6315789,11 C13.5,11 14.2105263,11.7 14.2105263,12.5555556 L14.2105263,13.3333333 L7.10526316,13.3333333 C6.22894737,13.3333333 5.52631579,14.0333333 5.52631579,14.8888889 L5.52631579,21.1111111 C5.52631579,21.9666667 6.22894737,22.6666667 7.10526316,22.6666667 L14.2105263,22.6666667 Z M7.10526316,21.1111111 L15,21.1111111 L15,14.8888889 L7.10526316,14.8888889 L7.10526316,21.1111111 Z M10.2631579,19.1666667 C9.60789474,19.1666667 9.07894737,18.6455556 9.07894737,18 C9.07894737,17.3544444 9.60789474,16.8333333 10.2631579,16.8333333 C10.9184211,16.8333333 11.4473684,17.3544444 11.4473684,18 C11.4473684,18.6455556 10.9184211,19.1666667 10.2631579,19.1666667 Z" id="balance-icon"></path>
                        </g>
                    </g>
                </g>
            </g>
        </g>
    </g>
</svg>