<svg width="13px" height="14px" viewBox="0 0 13 14" version="1.1" xmlns="http://www.w3.org/2000/svg" xmlns:xlink="http://www.w3.org/1999/xlink"> <!-- Generator: Sketch 47.1 (45422) - http://www.bohemiancoding.com/sketch --> <desc>Created with Sketch.</desc> <defs></defs> <g id="LiquidRe" stroke="none" stroke-width="1" fill="none" fill-rule="evenodd"> <g id="LiquidRe-–-New-IREO-Property-Info" transform="translate(-797.000000, -326.000000)" fill-rule="nonzero" fill="#1875F0"> <g id="Container" transform="translate(250.000000, 181.000000)"> <g id="Property-Information" transform="translate(120.000000, 48.000000)"> <g id="Start-Date" transform="translate(244.000000, 60.000000)"> <path d="M194.555556,49.6000022 L184.444444,49.6000022 L184.444444,41.8999936 L194.555556,41.8999936 L194.555556,49.6000022 Z M192.388889,37 L192.388889,38.3999992 L186.611111,38.3999992 L186.611111,37 L185.166667,37 L185.166667,38.3999992 L184.444444,38.3999992 C183.645667,38.3999992 183.007215,39.0264912 183.007215,39.7999969 L183,49.6000022 C183,50.372801 183.645667,51 184.444444,51 L194.555556,51 C195.352167,51 196,50.372801 196,49.6000022 L196,39.7999969 C196,39.0264912 195.352167,38.3999992 194.555556,38.3999992 L193.833333,38.3999992 L193.833333,37 L192.388889,37 Z M193.111111,44.7000101 L189.5,44.7000101 L189.5,48.2000045 L193.111111,48.2000045 L193.111111,44.7000101 Z" id="Shape"></path> </g> </g> </g> </g> </g> </svg>
                                    