<svg width="22px" height="22px" viewBox="0 0 22 22" version="1.1" xmlns="http://www.w3.org/2000/svg" xmlns:xlink="http://www.w3.org/1999/xlink"> <!-- Generator: Sketch 47.1 (45422) - http://www.bohemiancoding.com/sketch --> <desc>Created with Sketch.</desc> <defs></defs> <g id="LiquidRe" stroke="none" stroke-width="1" fill="none" fill-rule="evenodd"> <g id="LiquidRe-–-New-IREO-Property-Title" transform="translate(-824.000000, -430.000000)" fill-rule="nonzero" fill="#1875F0"> <g id="Modal-Window" transform="translate(298.000000, 245.000000)"> <g id="Current-Title-Company" transform="translate(72.000000, 130.000000)"> <g id="Website" transform="translate(408.000000, 31.000000)"> <path d="M61.7971031,37.199978 C61.8873031,36.4773862 61.950003,35.7469844 61.950003,34.9999725 C61.950003,34.2530706 61.8873031,33.5226688 61.7971031,32.800022 L65.5107012,32.800022 C65.6933012,33.5040788 65.8000011,34.2387706 65.8000011,34.9999725 C65.8000011,35.7612844 65.6933012,36.4959762 65.5107012,37.199978 L61.7971031,37.199978 Z M59.8523041,43.3170933 C60.5123037,42.0927902 61.0139035,40.7749869 61.3692033,39.3999835 L64.6131017,39.3999835 C63.5582022,41.219388 61.8730031,42.6229916 59.8523041,43.3170933 Z M59.5729042,37.199978 L54.4260068,37.199978 C54.3215068,36.4794762 54.2499959,35.7491844 54.2499959,34.9999725 C54.2499959,34.2508706 54.3215068,33.5205788 54.4260068,32.800022 L59.5729042,32.800022 C59.6774042,33.5205788 59.7500041,34.2508706 59.7500041,34.9999725 C59.7500041,35.7491844 59.6774042,36.4794762 59.5729042,37.199978 Z M56.9978055,43.7603944 C56.082606,42.4403911 55.3676063,40.9741974 54.8979066,39.3999835 L59.1010044,39.3999835 C58.6302047,40.9741974 57.915205,42.4403911 56.9978055,43.7603944 Z M52.6286077,30.6000165 L49.3846983,30.6000165 C50.4385088,28.7784009 52.1236859,27.3725864 54.1454959,26.6807177 C53.4854963,27.9049878 52.9838965,29.2227911 52.6286077,30.6000165 Z M49.3846983,39.3999835 L52.6286077,39.3999835 C52.9838965,40.7760869 53.4854963,42.0951002 54.1454959,43.3192933 C52.1236859,42.6275016 50.4385088,41.2216981 49.3846983,39.3999835 Z M48.4870878,37.199978 C48.3056098,36.4959762 48.1999989,35.7612844 48.1999989,34.9999725 C48.1999989,34.2387706 48.3056098,33.5040788 48.4870878,32.800022 L52.2018079,32.800022 C52.1115969,33.5226688 52.049997,34.2530706 52.049997,34.9999725 C52.049997,35.7469844 52.1115969,36.4773862 52.2018079,37.199978 L48.4870878,37.199978 Z M56.9978055,26.2396166 C57.915205,27.5596309 58.6302047,29.0258796 59.1010044,30.6000165 L54.8979066,30.6000165 C55.3676063,29.0258796 56.082606,27.5596309 56.9978055,26.2396166 Z M64.6131017,30.6000165 L61.3692033,30.6000165 C61.0139035,29.2250131 60.5123037,27.9072098 59.8523041,26.6829287 C61.8730031,27.3770084 63.5582022,28.780623 64.6131017,30.6000165 Z M56.9934055,24 C50.9147865,24 46,28.9247013 46,34.9999725 C46,41.0753977 50.9147865,46 56.9934055,46 C63.0731025,46 68,41.0753977 68,34.9999725 C68,28.9247013 63.0731025,24 56.9934055,24 Z" id="Shape"></path> </g> </g> </g> </g> </g> </svg>