<?xml version="1.0" encoding="UTF-8" standalone="no"?>
<svg width="13px" height="16px" viewBox="0 0 13 16" version="1.1" xmlns="http://www.w3.org/2000/svg" xmlns:xlink="http://www.w3.org/1999/xlink">
    <!-- Generator: Sketch 48.2 (47327) - http://www.bohemiancoding.com/sketch -->
    <title>doc-pictures</title>
    <desc>Created with Sketch.</desc>
    <defs></defs>
    <g id="LiquidRe-–-IREO-Listing---Due-Diligence-Completed" stroke="none" stroke-width="1" fill="none" fill-rule="evenodd" transform="translate(-327.000000, -1279.000000)">
        <g id="Detail" transform="translate(250.000000, 83.000000)" fill="#1875F0" fill-rule="nonzero">
            <g id="Due-Dillegence" transform="translate(0.000000, 1062.000000)">
                <g id="Physical-Inspections" transform="translate(24.000000, 78.000000)">
                    <g id="Files" transform="translate(0.000000, 40.000000)">
                        <g id="File">
                            <path d="M60.3125036,21.5999812 L64.7812508,21.5999812 L60.3125036,17.1999834 L60.3125036,21.5999812 Z M54.6249909,16 L61.125003,16 L66,20.7999896 L66,30.4000008 C66,31.2832004 65.2720005,32 64.375001,32 L54.6168577,32 C53.7198583,32 53,31.2832004 53,30.4000008 L53.0081331,17.5999912 C53.0081331,16.7167836 53.7271708,16 54.6249909,16 Z M54.6254946,30.4015208 L61.93799,30.4015208 L64.3754885,30.4015208 L64.3754885,24.001524 L61.1254905,27.2015224 L59.5004916,25.6015232 L54.6254946,30.4015208 Z M56.2504936,21.6015252 C55.353031,21.6015252 54.6254946,22.3178688 54.6254946,23.2015244 C54.6254946,24.085204 55.353031,24.8015236 56.2504936,24.8015236 C57.1479562,24.8015236 57.8754926,24.085204 57.8754926,23.2015244 C57.8754926,22.3178688 57.1479562,21.6015252 56.2504936,21.6015252 Z" id="doc-pictures"></path>
                        </g>
                    </g>
                </g>
            </g>
        </g>
    </g>
</svg>