<?xml version="1.0" encoding="UTF-8" standalone="no"?>
<svg width="13px" height="16px" viewBox="0 0 13 16" version="1.1" xmlns="http://www.w3.org/2000/svg" xmlns:xlink="http://www.w3.org/1999/xlink">
    <!-- Generator: Sketch 48.2 (47327) - http://www.bohemiancoding.com/sketch -->
    <title>doc-video</title>
    <desc>Created with Sketch.</desc>
    <defs></defs>
    <g id="LiquidRe-–-IREO-Listing---Due-Diligence-Completed" stroke="none" stroke-width="1" fill="none" fill-rule="evenodd" transform="translate(-356.000000, -1279.000000)">
        <g id="Detail" transform="translate(250.000000, 83.000000)" fill="#1875F0" fill-rule="nonzero">
            <g id="Due-Dillegence" transform="translate(0.000000, 1062.000000)">
                <g id="Physical-Inspections" transform="translate(24.000000, 78.000000)">
                    <g id="Files" transform="translate(0.000000, 40.000000)">
                        <g id="File">
                            <path d="M89.3125036,21.5999916 L93.7812508,21.5999916 L89.3125036,17.1999982 L89.3125036,21.5999916 Z M83.624999,16 L90.125003,16 L95,20.7999928 L95,30.4000024 C95,31.2832011 94.2720005,32 93.375001,32 L83.6168659,32 C82.7198664,32 82,31.2832011 82,30.4000024 L82.0081331,17.5999976 C82.0081331,16.7167989 82.7271708,16 83.624999,16 Z M92.562989,29.6015236 L92.562989,24.8015308 L90.1254905,26.5615282 L90.1254905,24.8015308 L84.437986,24.8015308 L84.437986,29.6015236 L90.1254905,29.6015236 L90.1254905,27.8415262 L92.562989,29.6015236 Z" id="doc-video"></path>
                        </g>
                    </g>
                </g>
            </g>
        </g>
    </g>
</svg>