<?xml version="1.0" encoding="UTF-8" standalone="no"?>
<svg width="13px" height="16px" viewBox="0 0 13 16" version="1.1" xmlns="http://www.w3.org/2000/svg" xmlns:xlink="http://www.w3.org/1999/xlink">
    <!-- Generator: Sketch 48.2 (47327) - http://www.bohemiancoding.com/sketch -->
    <title>doc-pdf</title>
    <desc>Created with Sketch.</desc>
    <defs></defs>
    <g id="LiquidRe-–-IREO-Listing---Due-Diligence-Completed" stroke="none" stroke-width="1" fill="none" fill-rule="evenodd" transform="translate(-298.000000, -1279.000000)">
        <g id="Detail" transform="translate(250.000000, 83.000000)" fill="#1875F0" fill-rule="nonzero">
            <g id="Due-Dillegence" transform="translate(0.000000, 1062.000000)">
                <g id="Physical-Inspections" transform="translate(24.000000, 78.000000)">
                    <g id="Files" transform="translate(0.000000, 40.000000)">
                        <g id="File">
                            <path d="M31.3125,21.6000056 L35.78125,21.6000056 L31.3125,17.2000012 L31.3125,21.6000056 Z M25.625,16 L32.125,16 L37,20.8000048 L37,30.3999984 C37,31.2831993 36.272,32 35.375,32 L25.6168669,32 C24.7198588,32 24,31.2831993 24,30.3999984 L24.0081331,17.6000016 C24.0081331,16.7168007 24.7271713,16 25.625,16 Z M29.6326563,24.3480723 C29.9657812,25.0720731 30.3899063,25.6640737 30.8700938,26.0712741 L31.2097188,26.3304743 C30.5012187,26.4544745 29.5262188,26.6784747 28.4951563,27.0704751 L28.4951563,27.0696751 L28.4065938,27.1032751 L28.8071562,26.2744743 C29.1735938,25.5792736 29.4441563,24.9456729 29.6326563,24.3480723 Z M34.8927812,27.3984754 C35.0390313,27.2544753 35.1178437,27.0720751 35.1242625,26.8688749 C35.1454687,26.7128747 35.1105312,26.5600746 35.024325,26.4280744 C34.7862625,26.0576741 34.1810313,25.8784739 33.1735312,25.8784739 L32.1189062,25.9376739 L31.4185313,25.4696735 C30.9008875,25.0520731 30.4419062,24.3264723 30.1217812,23.4240714 L30.1502188,23.3112713 C30.4224063,22.2488702 30.6677813,20.962445 30.1322625,20.4352604 C30.0007188,20.3072683 29.8292813,20.2400762 29.6391562,20.2400762 L29.4474063,20.2384522 C29.1410125,20.2384522 28.8900312,20.5504606 28.8014687,20.8592529 C28.5000312,21.9200619 28.6804063,22.5024705 28.9794063,23.4712715 L28.982575,23.4808715 C28.7737625,24.1848722 28.5154688,25.000073 28.0993875,25.8200738 L27.3259363,27.2640753 L26.6028031,27.6560757 C25.6050612,28.2584763 25.1598031,28.9272769 25.0737106,29.3504774 C25.0411781,29.5056775 25.0525531,29.6432776 25.1167569,29.7816778 L25.1354363,29.8232778 L25.5254525,30.0752781 L25.8821156,30.1584782 C26.5426619,30.1584782 27.288545,29.4008774 28.2985312,27.7032757 L28.44795,27.6464756 C29.27345,27.3816754 30.3192188,27.1912752 31.7370313,27.046475 C32.5552188,27.4544755 33.5399687,27.6376756 34.1622625,27.6376756 C34.5117188,27.6376756 34.761075,27.5536756 34.8927812,27.3984754 Z M34.572575,26.8336748 L34.6335125,26.9184749 C34.6253875,26.996875 34.5993875,27.008875 34.5604687,27.021675 L34.5328437,27.027275 L34.3744062,27.038475 C34.0046375,27.038475 33.428575,26.8856749 32.8290312,26.6288746 C32.9021562,26.5488745 32.95895,26.5488745 33.0150937,26.5488745 C34.1493437,26.5488745 34.4823875,26.7480747 34.572575,26.8336748 Z M27.1114444,27.996876 C26.58492,28.952877 26.1063981,29.4776775 25.7375069,29.6032776 C25.78217,29.2928773 26.1429281,28.7680768 26.7246944,28.2488762 L27.1114444,27.996876 Z M29.5619688,22.4728705 C29.3767188,21.7512778 29.3717625,21.1640692 29.5075313,20.8320688 L29.5619688,20.7376687 L29.6821375,20.7776768 C29.8292813,20.971261 29.8398438,21.2208692 29.7610313,21.6536537 L29.7366563,21.7840538 L29.6058438,22.4424704 L29.5619688,22.4728705 Z" id="doc-pdf"></path>
                        </g>
                    </g>
                </g>
            </g>
        </g>
    </g>
</svg>