<?xml version="1.0" encoding="UTF-8" standalone="no"?>
<svg width="13px" height="16px" viewBox="0 0 13 16" version="1.1" xmlns="http://www.w3.org/2000/svg" xmlns:xlink="http://www.w3.org/1999/xlink">
    <!-- Generator: Sketch 48.2 (47327) - http://www.bohemiancoding.com/sketch -->
    <title>download-16px</title>
    <desc>Created with Sketch.</desc>
    <defs></defs>
    <g id="LiquidRe-–-Register-as-Trustee" stroke="none" stroke-width="1" fill="none" fill-rule="evenodd" transform="translate(-546.000000, -432.000000)">
        <g id="Dashboard" transform="translate(250.000000, 83.000000)" fill="#1875F0" fill-rule="nonzero">
            <g id="Detail" transform="translate(0.000000, 98.000000)">
                <g id="File" transform="translate(272.000000, 234.000000)">
                    <path d="M36.255814,33 L24.744186,33 C24.3331834,33 24,32.6668166 24,32.255814 L24,32.255814 C24,31.8448113 24.3331834,31.5116279 24.744186,31.5116279 L36.255814,31.5116279 C36.6668166,31.5116279 37,31.8448113 37,32.255814 L37,32.255814 C37,32.6668166 36.6668166,33 36.255814,33 Z M31.2647059,25.9940736 L31.2647059,17.7409281 C31.2647059,17.3317248 30.9252799,17 30.5,17 C30.0776646,17 29.7352941,17.3348456 29.7352941,17.7409281 L29.7352941,25.9940736 L26.8348464,23.1714554 C26.5362101,22.8808327 26.0520251,22.8808327 25.7533889,23.1714554 C25.4547527,23.4620781 25.4547527,23.9332707 25.7533889,24.2238934 L29.9592713,28.3169167 C30.2579075,28.6075394 30.7420925,28.6075394 31.0407287,28.3169167 L35.2466111,24.2238934 C35.5452473,23.9332707 35.5452473,23.4620781 35.2466111,23.1714554 C34.9479749,22.8808327 34.4637899,22.8808327 34.1651536,23.1714554 L31.2647059,25.9940736 Z" id="download-16px"></path>
                </g>
            </g>
        </g>
    </g>
</svg>