 <svg width="24px" height="24px" viewBox="0 0 24 24" version="1.1" xmlns="http://www.w3.org/2000/svg" xmlns:xlink="http://www.w3.org/1999/xlink"> <!-- Generator: Sketch 47.1 (45422) - http://www.bohemiancoding.com/sketch --> <desc>Created with Sketch.</desc> <defs></defs> <g id="Web-Application" stroke="none" stroke-width="1" fill="none" fill-rule="evenodd"> <g id="LiquidRe-–-IREO-Listing" transform="translate(-570.000000, -470.000000)"> <g id="Detail" transform="translate(250.000000, 83.000000)"> <g id="Info" transform="translate(0.000000, 98.000000)"> <g id="Video" transform="translate(24.000000, 24.000000)"> <g id="Photos" transform="translate(296.000000, 265.000000)"> <rect id="Rectangle-5" fill="#1875F0" x="0" y="0" width="24" height="24" rx="4"></rect> <path d="M16.375,7 L7.625,7 C7.28125,7 7,7.28125 7,7.625 L7,16.375 C7,16.71875 7.28125,17 7.625,17 L16.375,17 C16.71875,17 17,16.71875 17,16.375 L17,7.625 C17,7.28125 16.71875,7 16.375,7 Z M8.5625,14.5 L10.28125,12.2875 L11.50625,13.7625 L13.225,11.55 L15.4375,14.5 L8.5625,14.5 Z" id="Shape" fill="#FFFFFF" fill-rule="nonzero"></path> </g> </g> </g> </g> </g> </g> </svg>
                                        