<?xml version="1.0" encoding="UTF-8" standalone="no"?>
<svg width="12px" height="12px" viewBox="0 0 12 12" version="1.1" xmlns="http://www.w3.org/2000/svg" xmlns:xlink="http://www.w3.org/1999/xlink">
    <!-- Generator: Sketch 48.2 (47327) - http://www.bohemiancoding.com/sketch -->
    <title>info-fail-icon</title>
    <desc>Created with Sketch.</desc>
    <defs></defs>
    <g id="LiquidRe-–-My-Portfolio" stroke="none" stroke-width="1" fill="none" fill-rule="evenodd" transform="translate(-388.000000, -264.000000)">
        <g id="Dashboard" transform="translate(250.000000, 83.000000)" fill="#FF3F34" fill-rule="nonzero">
            <g id="My-Liquid-Real-Estate-Holdings" transform="translate(0.000000, 98.000000)">
                <g id="List">
                    <g id="LRETs" transform="translate(24.000000, 75.000000)">
                        <g id="LRET---1" transform="translate(0.000000, 6.000000)">
                            <path d="M124.8,2 L115.2,2 C114.54,2 114.006,2.54 114.006,3.2 L114,14 L116.4,11.6 L124.8,11.6 C125.46,11.6 126,11.06 126,10.4 L126,3.2 C126,2.54 125.46,2 124.8,2 Z M120.6,9.2 L119.4,9.2 L119.4,8 L120.6,8 L120.6,9.2 Z M120.6,6.8 L119.4,6.8 L119.4,4.4 L120.6,4.4 L120.6,6.8 Z" id="info-fail-icon"></path>
                        </g>
                    </g>
                </g>
            </g>
        </g>
    </g>
</svg>