<svg width="14px" height="14px" viewBox="0 0 14 14" version="1.1" xmlns="http://www.w3.org/2000/svg" xmlns:xlink="http://www.w3.org/1999/xlink"> <!-- Generator: Sketch 47.1 (45422) - http://www.bohemiancoding.com/sketch --> <desc>Created with Sketch.</desc> <defs></defs> <g id="LiquidRe" stroke="none" stroke-width="1" fill="none" fill-rule="evenodd"> <g id="LiquidRe-–-New-IREO-Due-Diligence---Skip" transform="translate(-424.000000, -113.000000)" fill-rule="nonzero" fill="#1875F0"> <g id="Title-Block" transform="translate(250.000000, 83.000000)"> <g id="Text" transform="translate(24.000000, 24.000000)"> <g id="Title"> <path d="M156,11 L157,11 L157,10 L156,10 L156,11 Z M156.500003,18 C153.467429,18 151,15.5326235 151,12.4999828 C151,9.46743834 153.467429,7 156.500003,7 C159.532564,7 162,9.46743834 162,12.4999828 C162,15.5326235 159.532564,18 156.500003,18 Z M157.000003,6 C153.133891,6 150,9.13390083 150,12.9999825 C150,16.8661622 153.133891,20 157.000003,20 C160.866102,20 164,16.8661622 164,12.9999825 C164,9.13390083 160.866102,6 157.000003,6 Z M156,16 L157,16 L157,12 L156,12 L156,16 Z" id="Shape"></path> </g> </g> </g> </g> </g> </svg>
    