<?xml version="1.0" encoding="UTF-8" standalone="no"?>
<svg width="12px" height="15px" viewBox="0 0 12 15" version="1.1" xmlns="http://www.w3.org/2000/svg" xmlns:xlink="http://www.w3.org/1999/xlink">
    <!-- Generator: Sketch 48.2 (47327) - http://www.bohemiancoding.com/sketch -->
    <title>ireos</title>
    <desc>Created with Sketch.</desc>
    <defs></defs>
    <g id="LiquidRe-–-US-Investors" stroke="none" stroke-width="1" fill="none" fill-rule="evenodd" transform="translate(-41.000000, -212.000000)">
        <g id="Sidebar" transform="translate(24.000000, 99.000000)" fill="#1875F0" fill-rule="nonzero">
            <g id="Links" transform="translate(16.000000, 0.000000)">
                <g id="IREO" transform="translate(1.000000, 112.000000)">
                    <path d="M4.58692005,7.87944381 C4.69382293,8.2859268 4.69382293,8.7140732 4.58692005,9.12055619 L8.11811053,11.8284378 C8.98451861,11.0426912 10.2833988,11.0255942 11.1692992,11.7882755 C12.0551996,12.5509567 12.2600458,13.8626279 11.6505015,14.8695114 C11.0409573,15.8763948 9.80147153,16.2738064 8.73883581,15.8030677 C7.67620009,15.3323289 7.11196926,14.1358858 7.41340585,12.9925132 L3.88254872,10.2842908 C2.94565155,11.1347194 1.51921838,11.0768988 0.651093593,10.1533035 C-0.217031198,9.22970819 -0.217031198,7.76995093 0.651093593,6.84635564 C1.51921838,5.92276035 2.94565155,5.86493976 3.88254872,6.71536833 L7.41340585,4.00748676 C7.11196926,2.86411416 7.67620009,1.66767113 8.73883581,1.19693234 C9.80147153,0.72619356 11.0409573,1.12360515 11.6505015,2.13048863 C12.2600458,3.1373721 12.0551996,4.44904329 11.1692992,5.21172454 C10.2833988,5.9744058 8.98451861,5.95730884 8.11811053,5.17156223 L4.5872534,7.87910293 L4.58692005,7.87944381 Z M9.66719409,4.40937402 C10.2195086,4.40937402 10.667248,3.95153418 10.667248,3.38676013 C10.667248,2.82198607 10.2195086,2.36414624 9.66719409,2.36414624 C9.11487955,2.36414624 8.66714014,2.82198607 8.66714014,3.38676013 C8.66714014,3.95153418 9.11487955,4.40937402 9.66719409,4.40937402 Z M9.66719409,14.6355129 C10.2195086,14.6355129 10.667248,14.1776731 10.667248,13.612899 C10.667248,13.0481249 10.2195086,12.5902851 9.66719409,12.5902851 C9.11487955,12.5902851 8.66714014,13.0481249 8.66714014,13.612899 C8.66714014,14.1776731 9.11487955,14.6355129 9.66719409,14.6355129 Z M2.33346516,9.52244345 C2.8857797,9.52244345 3.3335191,9.06460362 3.3335191,8.49982956 C3.3335191,7.93505551 2.8857797,7.47721568 2.33346516,7.47721568 C1.78115062,7.47721568 1.33341121,7.93505551 1.33341121,8.49982956 C1.33341121,9.06460362 1.78115062,9.52244345 2.33346516,9.52244345 Z" id="ireos"></path>
                </g>
            </g>
        </g>
    </g>
</svg>