<?xml version="1.0" encoding="UTF-8" standalone="no"?>
<svg width="14px" height="14px" viewBox="0 0 14 14" version="1.1" xmlns="http://www.w3.org/2000/svg" xmlns:xlink="http://www.w3.org/1999/xlink">
    <!-- Generator: Sketch 48.2 (47327) - http://www.bohemiancoding.com/sketch -->
    <title>lrets</title>
    <desc>Created with Sketch.</desc>
    <defs></defs>
    <g id="LiquidRe-–-US-Investors" stroke="none" stroke-width="1" fill="none" fill-rule="evenodd" transform="translate(-40.000000, -268.000000)">
        <g id="Sidebar" transform="translate(24.000000, 99.000000)" fill="#1875F0" fill-rule="nonzero">
            <g id="Links" transform="translate(16.000000, 0.000000)">
                <g id="LRET" transform="translate(0.000000, 168.000000)">
                    <path d="M1.58900455,14.9999997 C1.16685812,15.0000011 0.762061848,14.8320209 0.463947512,14.5331295 C0.165833176,14.2342381 -0.00109350795,13.8290051 5.39144961e-06,13.4068586 L5.39144961e-06,7.99775175 C5.39144961e-06,7.28565874 0.407596084,6.40461068 0.951368523,5.94260932 L6.58763826,1.15141334 C6.82524233,0.949528886 7.17412466,0.949528886 7.41172873,1.15141334 L13.0486348,5.94260932 C13.5927254,6.40588341 13.999998,7.28470419 13.999998,7.99806993 L13.999998,13.4071768 C14.0006741,13.8295509 13.8332955,14.2348434 13.5347819,14.5336565 C13.2362682,14.8324697 12.8311446,15.0002538 12.4087715,14.9999997 L1.58900455,14.9999997 Z M12.4087715,13.7272687 C12.4936536,13.7275273 12.575106,13.6937913 12.6349474,13.633591 C12.6947887,13.5733908 12.7280372,13.491738 12.7272714,13.4068586 L12.7272714,7.99775175 C12.7272714,7.65793257 12.4844988,7.13356738 12.2245444,6.91243036 L7.00000168,2.47155361 L1.77545899,6.91243036 C1.51645913,7.13261283 1.27273199,7.6592053 1.27273199,7.99775175 L1.27273199,13.4068586 C1.27162552,13.491454 1.30445789,13.5729662 1.36389085,13.6331767 C1.42332381,13.6933871 1.50440224,13.7272759 1.58900455,13.7272687 L12.4087715,13.7272687 Z M7.42850331,11.1504 L7.42850331,11.6 C7.42850331,11.8209139 7.23665585,12 7,12 C6.76334415,12 6.57149669,11.8209139 6.57149669,11.6 L6.57149669,11.1542 C6.36407055,11.108175 6.16622063,11.0304609 5.98594691,10.9242 C5.80897504,10.821 5.68213806,10.7148 5.60607872,10.6336 C5.45185359,10.4671102 5.47069799,10.2155905 5.64824783,10.070761 C5.82579767,9.92593154 6.09533443,9.94221527 6.25140471,10.1072 C6.2758294,10.1334 6.34160466,10.1884 6.44037467,10.246 C6.60620545,10.3428 6.79281865,10.4 6.99807174,10.4 C7.40086485,10.4 7.66396589,10.1772 7.64146946,9.9844 C7.62025855,9.8036 7.44157267,9.6644 6.8710205,9.3882 L6.80267422,9.355 C6.8001623,9.3538225 6.79766258,9.35262245 6.79517542,9.3514 L6.7345422,9.322 C5.90260301,8.9194 5.57201271,8.662 5.50666595,8.1026 C5.43789117,7.515 5.90881631,7.0062 6.57149669,6.8496 L6.57149669,6.4 C6.57149669,6.1790861 6.76334415,6 7,6 C7.23665585,6 7.42850331,6.1790861 7.42850331,6.4 L7.42850331,6.8458 C7.63592945,6.89182496 7.83377937,6.96953907 8.01405309,7.0758 C8.19102496,7.179 8.31786194,7.2852 8.39392128,7.3664 C8.54814641,7.53288985 8.52930201,7.78440947 8.35175217,7.92923896 C8.17420233,8.07406846 7.90466557,8.05778473 7.74859529,7.8928 C7.7241706,7.8666 7.65839534,7.8116 7.55962533,7.754 C7.39379455,7.6572 7.20718135,7.6 7.00192826,7.6 C6.59913515,7.6 6.33603411,7.8228 6.35853054,8.0156 C6.37974145,8.1964 6.55842733,8.3356 7.1289795,8.6118 C7.17447557,8.63379405 7.21996834,8.65579405 7.2654578,8.6778 C8.09739699,9.0806 8.42798729,9.3382 8.49333405,9.8974 C8.56210883,10.485 8.09118369,10.9938 7.42850331,11.1504 Z" id="lrets"></path>
                </g>
            </g>
        </g>
    </g>
</svg>