 <svg width="18px" height="18px" viewBox="0 0 18 18" version="1.1" xmlns="http://www.w3.org/2000/svg" xmlns:xlink="http://www.w3.org/1999/xlink"> <!-- Generator: Sketch 47.1 (45422) - http://www.bohemiancoding.com/sketch --> <desc>Created with Sketch.</desc> <defs></defs> <g id="Web-Application" stroke="none" stroke-width="1" fill="none" fill-rule="evenodd"> <g id="LiquidRe-–-IREO-Listing" transform="translate(-1109.000000, -111.000000)" fill-rule="nonzero" fill="#1875F0"> <g id="Detail" transform="translate(250.000000, 83.000000)"> <g id="Title-Block"> <g id="Map" transform="translate(859.000000, 28.000000)"> <path d="M6.95454546,9.83193619 L6.95454546,14.9275656 L11.0454545,16.0967458 L11.0454545,9.83193619 L9.56127273,11.2314343 C9.24608979,11.5285958 8.75391021,11.5285958 8.43872727,11.2314343 L6.95454546,9.83193619 Z M13.8068182,5.98525962 C13.6352021,6.8284651 13.2475497,7.6126496 12.6818182,8.26102925 L12.6818182,16.0738368 L16.3636364,14.9406565 L16.3636364,5.19898797 L13.8068182,5.98566871 L13.8068182,5.98525962 Z M4.12568183,5.56553292 L1.63636365,6.33135006 L1.63636365,16.0738368 L5.31818182,14.9406565 L5.31818182,8.26143834 C4.65765214,7.5037862 4.24192429,6.56394304 4.12568183,5.56553292 L4.12568183,5.56553292 Z M4.22304546,3.82362621 C4.4305059,2.93101504 4.88089407,2.11320978 5.52436364,1.46072034 C6.43950592,0.526483925 7.69222118,-1.81672611e-16 9,0 C10.3077788,1.81672611e-16 11.5604941,0.526483925 12.4756364,1.46072034 C13.2245095,2.2205042 13.7092696,3.200923 13.8583636,4.25726198 L16.9412727,3.30858146 C17.1894587,3.23224103 17.4591479,3.27824095 17.6679951,3.43253593 C17.8768424,3.58683091 18.0000505,3.8311009 18,4.09076221 L18,15.545292 C18.0000699,15.9045633 17.7657575,16.221847 17.4223636,16.3274728 L12.1041818,17.9638342 C11.9528372,18.0103045 11.7912608,18.0118677 11.6390454,17.9683342 L6.14495455,16.3986545 L1.05872729,17.9638342 C0.810541255,18.0401746 0.54085212,17.9941747 0.332004862,17.8398797 C0.123157604,17.6855847 -5.05109651e-05,17.4413148 1.56374793e-08,17.1816534 L1.56374793e-08,5.72712361 C-6.98895407e-05,5.36785234 0.234242473,5.05056861 0.577636378,4.94494286 L4.22263637,3.82362621 L4.22304546,3.82362621 Z M11.3097273,2.60862787 C10.7021569,1.98669716 9.86944842,1.63606721 9,1.63606721 C8.13055158,1.63606721 7.29784305,1.98669716 6.69027273,2.60862787 C5.40613637,3.91239882 5.40613637,6.03148683 6.66859091,7.31357599 L9,9.51161845 L11.3195455,7.32462143 C12.5938636,6.0200323 12.5901818,3.908717 11.3097273,2.60862787 Z M9,6.13621396 C8.56153768,6.13621397 8.15638178,5.90229743 7.93715062,5.52257844 C7.71791946,5.14285946 7.71791946,4.67502637 7.93715062,4.29530738 C8.15638178,3.91558839 8.56153768,3.68167185 9,3.68167186 C9.67780401,3.68167186 10.2272727,4.23113982 10.2272727,4.90894291 C10.2272727,5.586746 9.67780401,6.13621396 9,6.13621396 Z" id="Shape"></path> </g> </g> </g> </g> </g> </svg>
                        