<?xml version="1.0" encoding="UTF-8" standalone="no"?>
<svg width="48px" height="48px" viewBox="0 0 48 48" version="1.1" xmlns="http://www.w3.org/2000/svg" xmlns:xlink="http://www.w3.org/1999/xlink">
    <!-- Generator: Sketch 48.2 (47327) - http://www.bohemiancoding.com/sketch -->
    <title>play</title>
    <desc>Created with Sketch.</desc>
    <defs></defs>
    <g id="LiquidRe-–-IREO-Listing---Due-Diligence-(Physical-View)" stroke="none" stroke-width="1" fill="none" fill-rule="evenodd" transform="translate(-937.000000, -423.000000)">
        <g id="Detail" transform="translate(250.000000, 83.000000)">
            <g id="Video-2" transform="translate(482.000000, 180.000000)">
                <g id="Video" transform="translate(24.000000, 24.000000)">
                    <g id="play" transform="translate(181.000000, 136.000000)">
                        <rect id="Rectangle-5" fill="#1875F0" x="0" y="0" width="48" height="48" rx="8"></rect>
                        <path d="M18,17.8501904 L18,30.1500652 C18,31.2030844 18.8536407,32.056725 19.9066598,32.056725 C20.2548327,32.056725 20.596359,31.9613882 20.8941923,31.7810561 L31.0513473,25.6311011 C31.9521187,25.085702 32.2402048,23.9133491 31.6948057,23.0125778 C31.5353963,22.7493001 31.3146212,22.5285256 31.0513432,22.3691169 L20.8941882,16.219197 C19.9934154,15.6738002 18.8210633,15.9618893 18.2756664,16.8626621 C18.0953359,17.1604944 18,17.5020192 18,17.8501904 Z" id="Shape" fill="#FFFFFF" fill-rule="nonzero"></path>
                    </g>
                </g>
            </g>
        </g>
    </g>
</svg>