<span class="up_btn"> <svg width="18px" height="18px" viewBox="0 0 18 18" version="1.1" xmlns="http://www.w3.org/2000/svg" xmlns:xlink="http://www.w3.org/1999/xlink"> <!-- Generator: Sketch 47.1 (45422) - http://www.bohemiancoding.com/sketch --> <desc>Created with Sketch.</desc> <defs></defs> <g id="LiquidRe" stroke="none" stroke-width="1" fill="none" fill-rule="evenodd"> <g id="LiquidRe-–-New-IREO-Property-Info" transform="translate(-998.000000, -1147.000000)" fill-rule="nonzero" fill="#1875F0"> <g id="Container" transform="translate(250.000000, 181.000000)"> <g id="Pictures" transform="translate(120.000000, 870.000000)"> <g id="Photos" transform="translate(0.000000, 60.000000)"> <g id="Photo" transform="translate(573.000000, 0.000000)"> <path d="M64.9,40.5 L63.1,40.5 L63.1,44.1 L59.5,44.1 L59.5,45.9 L63.1,45.9 L63.1,49.5 L64.9,49.5 L64.9,45.9 L68.5,45.9 L68.5,44.1 L64.9,44.1 L64.9,40.5 Z M64,36 C59.032,36 55,40.032 55,45 C55,49.968 59.032,54 64,54 C68.968,54 73,49.968 73,45 C73,40.032 68.968,36 64,36 Z M64,52.2 C60.031,52.2 56.8,48.969 56.8,45 C56.8,41.031 60.031,37.8 64,37.8 C67.969,37.8 71.2,41.031 71.2,45 C71.2,48.969 67.969,52.2 64,52.2 Z" id="Shape"></path> </g> </g> </g> </g> </g> </g> </svg>
                                