<?xml version="1.0" encoding="UTF-8" standalone="no"?>
<svg width="19px" height="16px" viewBox="0 0 19 16" version="1.1" xmlns="http://www.w3.org/2000/svg" xmlns:xlink="http://www.w3.org/1999/xlink">
    <!-- Generator: Sketch 48.2 (47327) - http://www.bohemiancoding.com/sketch -->
    <title>print</title>
    <desc>Created with Sketch.</desc>
    <defs></defs>
    <g id="LiquidRe-–-IREO-Listing---PDF-Preview" stroke="none" stroke-width="1" fill="none" fill-rule="evenodd" transform="translate(-497.000000, -939.000000)">
        <g id="Modal-Window" transform="translate(401.000000, 120.000000)" fill="#1875F0" fill-rule="nonzero">
            <g id="Print" transform="translate(72.000000, 805.000000)">
                <path d="M39.2000019,14 L27.7999981,14 L27.7999981,17.5555496 L39.2000019,17.5555496 L39.2000019,14 Z M40.1500014,22.0000133 C39.6246517,22.0000133 39.2000019,21.6026807 39.2000019,21.1111259 C39.2000019,20.6195712 39.6246517,20.2222119 40.1500014,20.2222119 C40.6753512,20.2222119 41.1000009,20.6195712 41.1000009,21.1111259 C41.1000009,21.6026807 40.6753512,22.0000133 40.1500014,22.0000133 Z M37.3000028,28.2222252 L29.6999972,28.2222252 L29.6999972,23.7777881 L37.3000028,23.7777881 L37.3000028,28.2222252 Z M40.1500014,18.444437 L26.8499986,18.444437 C25.2767994,18.444437 24,19.6390928 24,21.1111259 L24,26.4444504 L27.7999981,26.4444504 L27.7999981,30 L39.2000019,30 L39.2000019,26.4444504 L43,26.4444504 L43,21.1111259 C43,19.6382128 41.7241506,18.444437 40.1500014,18.444437 Z" id="print"></path>
            </g>
        </g>
    </g>
</svg>