<?xml version="1.0" encoding="UTF-8" standalone="no"?>
<svg width="34px" height="34px" viewBox="0 0 34 34" version="1.1" xmlns="http://www.w3.org/2000/svg" xmlns:xlink="http://www.w3.org/1999/xlink">
    <!-- Generator: Sketch 48.2 (47327) - http://www.bohemiancoding.com/sketch -->
    <title>refresh</title>
    <desc>Created with Sketch.</desc>
    <defs></defs>
    <g id="LiquidRe-–-IREOs-Map" stroke="none" stroke-width="1" fill="none" fill-rule="evenodd" transform="translate(-298.000000, -229.000000)">
        <g id="Dashboard" transform="translate(250.000000, 83.000000)">
            <g id="Map" transform="translate(0.000000, 98.000000)">
                <g id="refresh" transform="translate(48.000000, 48.000000)">
                    <path d="M5.1277704,-2.07168062e-16 L28.8722296,2.07168062e-16 C30.6552671,-1.2037061e-16 31.3018396,0.185651222 31.9536914,0.534265408 C32.6055433,0.882879593 33.1171204,1.39445674 33.4657346,2.04630859 C33.8143488,2.69816044 34,3.34473292 34,5.1277704 L34,28.8722296 C34,30.6552671 33.8143488,31.3018396 33.4657346,31.9536914 C33.1171204,32.6055433 32.6055433,33.1171204 31.9536914,33.4657346 C31.3018396,33.8143488 30.6552671,34 28.8722296,34 L5.1277704,34 C3.34473292,34 2.69816044,33.8143488 2.04630859,33.4657346 C1.39445674,33.1171204 0.882879593,32.6055433 0.534265408,31.9536914 C0.185651222,31.3018396 8.02470732e-17,30.6552671 -1.38112041e-16,28.8722296 L1.38112041e-16,5.1277704 C-8.02470732e-17,3.34473292 0.185651222,2.69816044 0.534265408,2.04630859 C0.882879593,1.39445674 1.39445674,0.882879593 2.04630859,0.534265408 C2.69816044,0.185651222 3.34473292,1.2037061e-16 5.1277704,-2.07168062e-16 Z" id="Rectangle-3" fill="#3D90FD"></path>
                    <path d="M21.942464,12.05625 C20.6729206,10.7875 18.9305816,10 16.9956223,10 C13.1257036,10 10,13.1325 10,17 C10,20.8675 13.1257036,24 16.9956223,24 C20.2614134,24 22.9843652,21.76875 23.7636023,18.75 L21.942464,18.75 C21.2245153,20.78875 19.2808005,22.25 16.9956223,22.25 C14.097561,22.25 11.742339,19.89625 11.742339,17 C11.742339,14.10375 14.097561,11.75 16.9956223,11.75 C18.4490306,11.75 19.7448405,12.35375 20.6904315,13.3075 L17.8711695,16.125 L24,16.125 L24,10 L21.942464,12.05625 Z" id="Shape" fill="#FFFFFF" fill-rule="nonzero"></path>
                </g>
            </g>
        </g>
    </g>
</svg>