<?xml version="1.0" encoding="UTF-8" standalone="no"?>
<svg width="14px" height="14px" viewBox="0 0 14 14" version="1.1" xmlns="http://www.w3.org/2000/svg" xmlns:xlink="http://www.w3.org/1999/xlink">
    <!-- Generator: Sketch 48.2 (47327) - http://www.bohemiancoding.com/sketch -->
    <title>search-blue</title>
    <desc>Created with Sketch.</desc>
    <defs></defs>
    <g id="LiquidRe-–-All-Sellers---Search" stroke="none" stroke-width="1" fill="none" fill-rule="evenodd" transform="translate(-1092.000000, -113.000000)">
        <g id="Dashboard" transform="translate(250.000000, 83.000000)" fill="#1875F0" fill-rule="nonzero">
            <g id="Title-Block">
                <g id="Search" transform="translate(842.000000, 29.000000)">
                    <path d="M10.0057176,9.80503145 L9.3733562,9.80503145 L9.14922813,9.58890795 C9.93367639,8.67638651 10.4059463,7.49170955 10.4059463,6.20297313 C10.4059463,3.32933105 8.07661521,1 5.20297313,1 C2.32933105,1 0,3.32933105 0,6.20297313 C0,9.07661521 2.32933105,11.4059463 5.20297313,11.4059463 C6.49170955,11.4059463 7.67638651,10.9336764 8.58890795,10.1492281 L8.80503145,10.3733562 L8.80503145,11.0057176 L12.8073185,15 L14,13.8073185 L10.0057176,9.80503145 Z M5.20297313,9.80503145 C3.20983419,9.80503145 1.60091481,8.19611206 1.60091481,6.20297313 C1.60091481,4.20983419 3.20983419,2.60091481 5.20297313,2.60091481 C7.19611206,2.60091481 8.80503145,4.20983419 8.80503145,6.20297313 C8.80503145,8.19611206 7.19611206,9.80503145 5.20297313,9.80503145 Z" id="search-blue"></path>
                </g>
            </g>
        </g>
    </g>
</svg>