<?xml version="1.0" encoding="UTF-8" standalone="no"?>
<svg width="15px" height="15px" viewBox="0 0 15 15" version="1.1" xmlns="http://www.w3.org/2000/svg" xmlns:xlink="http://www.w3.org/1999/xlink">
    <!-- Generator: Sketch 48.2 (47327) - http://www.bohemiancoding.com/sketch -->
    <title>search-icon</title>
    <desc>Created with Sketch.</desc>
    <defs></defs>
    <g id="LiquidRe-–-US-Investors" stroke="none" stroke-width="1" fill="none" fill-rule="evenodd" transform="translate(-274.000000, -22.000000)">
        <g id="Header" fill="#FFFFFF" fill-rule="nonzero">
            <g id="Search" transform="translate(274.000000, 20.000000)">
                <path d="M10.7204117,11.4339623 L10.0428816,11.4339623 L9.80274443,11.2024014 C10.6432247,10.2246998 11.1492281,8.95540309 11.1492281,7.57461407 C11.1492281,4.49571184 8.6535163,2 5.57461407,2 C2.49571184,2 0,4.49571184 0,7.57461407 C0,10.6535163 2.49571184,13.1492281 5.57461407,13.1492281 C6.95540309,13.1492281 8.22469983,12.6432247 9.20240137,11.8027444 L9.43396226,12.0428816 L9.43396226,12.7204117 L13.7221269,17 L15,15.7221269 L10.7204117,11.4339623 Z M5.57461407,11.4339623 C3.43910806,11.4339623 1.71526587,9.71012007 1.71526587,7.57461407 C1.71526587,5.43910806 3.43910806,3.71526587 5.57461407,3.71526587 C7.71012007,3.71526587 9.43396226,5.43910806 9.43396226,7.57461407 C9.43396226,9.71012007 7.71012007,11.4339623 5.57461407,11.4339623 Z" id="search-icon"></path>
            </g>
        </g>
    </g>
</svg>