<svg width="8px" height="10px" viewBox="0 0 8 10" version="1.1" xmlns="http://www.w3.org/2000/svg" xmlns:xlink="http://www.w3.org/1999/xlink"> <!-- Generator: Sketch 47.1 (45422) - http://www.bohemiancoding.com/sketch --> <desc>Created with Sketch.</desc> <defs></defs> <g id="LiquidRe" stroke="none" stroke-width="1" fill="none" fill-rule="evenodd"> <g id="LiquidRe-–-New-IREO-Property-Info" transform="translate(-547.000000, -1399.000000)" fill-rule="nonzero" fill="#1875F0"> <g id="Container" transform="translate(250.000000, 181.000000)"> <g id="Trustee" transform="translate(120.000000, 1092.000000)"> <g id="Sort-Options" transform="translate(0.000000, 116.000000)"> <g id="Group" transform="translate(68.000000, 0.000000)"> <path d="M109.853553,16.8535534 L112.646447,19.6464466 L112.646447,19.6464466 C112.841709,19.8417088 113.158291,19.8417088 113.353553,19.6464466 L116.146447,16.8535534 L116.146447,16.8535534 C116.341709,16.6582912 116.341709,16.3417088 116.146447,16.1464466 C116.052678,16.0526784 115.925501,16 115.792893,16 L110.207107,16 L110.207107,16 C109.930964,16 109.707107,16.2238576 109.707107,16.5 C109.707107,16.6326082 109.759785,16.7597852 109.853553,16.8535534 Z" id="Shape"></path> <path d="M109.853553,10.8535534 L112.646447,13.6464466 L112.646447,13.6464466 C112.841709,13.8417088 113.158291,13.8417088 113.353553,13.6464466 L116.146447,10.8535534 L116.146447,10.8535534 C116.341709,10.6582912 116.341709,10.3417088 116.146447,10.1464466 C116.052678,10.0526784 115.925501,10 115.792893,10 L110.207107,10 L110.207107,10 C109.930964,10 109.707107,10.2238576 109.707107,10.5 C109.707107,10.6326082 109.759785,10.7597852 109.853553,10.8535534 Z" id="Shape-Copy" transform="translate(113.000000, 12.000000) scale(1, -1) translate(-113.000000, -12.000000) "></path> </g> </g> </g> </g> </g> </g> </svg>
                                    