<?xml version="1.0" encoding="UTF-8" standalone="no"?>
<svg width="12px" height="12px" viewBox="0 0 12 12" version="1.1" xmlns="http://www.w3.org/2000/svg" xmlns:xlink="http://www.w3.org/1999/xlink">
    <!-- Generator: Sketch 48.2 (47327) - http://www.bohemiancoding.com/sketch -->
    <title>star</title>
    <desc>Created with Sketch.</desc>
    <defs></defs>
    <g id="LiquidRe-–-All-IREOs" stroke="none" stroke-width="1" fill="none" fill-rule="evenodd" transform="translate(-597.000000, -347.000000)">
        <g id="Dashboard" transform="translate(250.000000, 83.000000)" fill="#F5A623" fill-rule="nonzero">
            <g id="IREOs" transform="translate(2.000000, 98.000000)">
                <g id="IREO-–-1">
                    <g id="Seller" transform="translate(288.000000, 160.000000)">
                        <path d="M63.267972,15.8162214 L65.692187,17.3551475 C65.9253212,17.5031444 66.2342889,17.434127 66.3822858,17.2009928 C66.4531438,17.0893728 66.4769085,16.9542317 66.4483809,16.8251346 L65.7894101,13.8430659 C65.7508008,13.6683452 65.8085024,13.4863114 65.940715,13.3657383 L68.1610321,11.3408903 C68.3650689,11.1548162 68.3796305,10.8385688 68.1935564,10.6345319 C68.1093503,10.542197 67.9936204,10.4847413 67.869163,10.4734824 L64.9899405,10.213017 C64.803007,10.1961063 64.6412906,10.0759273 64.5711798,9.90181646 L63.4638086,7.15180715 C63.3606606,6.89565271 63.0693884,6.77161652 62.813234,6.87476455 C62.6870436,6.92557877 62.5870056,7.02561677 62.5361914,7.15180715 L61.4288202,9.90181646 C61.3587094,10.0759273 61.196993,10.1961063 61.0100595,10.213017 L58.130837,10.4734824 C57.8558177,10.4983617 57.6530391,10.7414776 57.6779184,11.0164969 C57.6891773,11.1409543 57.746633,11.2566842 57.8389679,11.3408903 L60.059285,13.3657383 C60.1914976,13.4863114 60.2491992,13.6683452 60.2105899,13.8430659 L59.5516191,16.8251346 C59.4920352,17.0947721 59.6623173,17.3616587 59.9319548,17.4212426 C60.0610519,17.4497702 60.1961929,17.4260055 60.307813,17.3551475 L62.732028,15.8162214 C62.8955892,15.7123904 63.1044108,15.7123904 63.267972,15.8162214 Z" id="star"></path>
                    </g>
                </g>
            </g>
        </g>
    </g>
</svg>