<?xml version="1.0" encoding="UTF-8" standalone="no"?>
<svg width="14px" height="14px" viewBox="0 0 14 14" version="1.1" xmlns="http://www.w3.org/2000/svg" xmlns:xlink="http://www.w3.org/1999/xlink">
    <!-- Generator: Sketch 48.2 (47327) - http://www.bohemiancoding.com/sketch -->
    <title>start-ireo</title>
    <desc>Created with Sketch.</desc>
    <defs></defs>
    <g id="LiquidRe-–-US-Investors" stroke="none" stroke-width="1" fill="none" fill-rule="evenodd" transform="translate(-40.000000, -366.000000)">
        <g id="Sidebar" transform="translate(24.000000, 99.000000)" fill="#1875F0" fill-rule="nonzero">
            <g id="Links-2" transform="translate(16.000000, 266.000000)">
                <g id="IREO">
                    <path d="M2.86721151e-07,2.59313659 C-0.000253148825,2.17053293 0.167513272,1.76516521 0.466339239,1.46633924 C0.765165206,1.16751327 1.17053293,0.999746851 1.59313659,1.00000029 L12.4068634,1.00000029 C12.8294671,0.999746851 13.2348348,1.16751327 13.5336608,1.46633924 C13.8324867,1.76516521 14.0002531,2.17053293 13.9999997,2.59313659 L13.9999997,13.4068634 C14.0002531,13.8294671 13.8324867,14.2348348 13.5336608,14.5336608 C13.2348348,14.8324867 12.8294671,15.0002531 12.4068634,14.9999997 L1.59313659,14.9999997 C1.17053293,15.0002531 0.765165206,14.8324867 0.466339239,14.5336608 C0.167513272,14.2348348 -0.000253148825,13.8294671 2.86721151e-07,13.4068634 L2.86721151e-07,2.59313659 Z M1.27272751,2.59313659 L1.27272751,13.4068634 C1.27272751,13.5844089 1.41559114,13.7272725 1.59313659,13.7272725 L12.4068634,13.7272725 C12.5844089,13.7272725 12.7272725,13.5844089 12.7272725,13.4068634 L12.7272725,2.59313659 C12.7272725,2.41559114 12.5844089,2.27272751 12.4068634,2.27272751 L1.59313659,2.27272751 C1.41559114,2.27272751 1.27272751,2.41559114 1.27272751,2.59313659 Z M7.63636361,7.36363639 L9.86363625,7.36363639 C10.2150902,7.36363639 10.4999999,7.64854608 10.4999999,8 C10.4999999,8.35145392 10.2150902,8.63636361 9.86363625,8.63636361 L7.63636361,8.63636361 L7.63636361,11.1818181 C7.63636361,11.533272 7.35145392,11.8181817 7,11.8181817 C6.64854608,11.8181817 6.36363639,11.533272 6.36363639,11.1818181 L6.36363639,8.63636361 L3.81818195,8.63636361 C3.46672803,8.63636361 3.18181834,8.35145392 3.18181834,8 C3.18181834,7.64854608 3.46672803,7.36363639 3.81818195,7.36363639 L6.36363639,7.36363639 L6.36363639,4.81818195 C6.36363639,4.46672803 6.64854608,4.18181834 7,4.18181834 C7.35145392,4.18181834 7.63636361,4.46672803 7.63636361,4.81818195 L7.63636361,7.36363639 Z" id="start-ireo"></path>
                </g>
            </g>
        </g>
    </g>
</svg>