<?xml version="1.0" encoding="UTF-8" standalone="no"?>
<svg width="13px" height="12px" viewBox="0 0 13 12" version="1.1" xmlns="http://www.w3.org/2000/svg" xmlns:xlink="http://www.w3.org/1999/xlink">
    <!-- Generator: Sketch 48.2 (47327) - http://www.bohemiancoding.com/sketch -->
    <title>thumbs-down</title>
    <desc>Created with Sketch.</desc>
    <defs></defs>
    <g id="LiquidRe-–-IREO-Listing" stroke="none" stroke-width="1" fill="none" fill-rule="evenodd" transform="translate(-378.000000, -2027.000000)">
        <g id="Detail" transform="translate(250.000000, 83.000000)" fill="#FF3F34" fill-rule="nonzero">
            <g id="Comments" transform="translate(0.000000, 1514.000000)">
                <g id="Comment" transform="translate(24.000000, 270.000000)">
                    <g id="Field" transform="translate(104.000000, 46.000000)">
                        <g id="Thumbs" transform="translate(0.000000, 114.000000)">
                            <path d="M10.6363647,7.199988 L13,7.199988 L13,0 L10.6363647,0 L10.6363647,7.199988 Z M8.27272942,0 L2.95454411,0 C2.46527161,0 2.04573225,0.301794754 1.86608415,0.73198383 L0.0833122349,4.96384241 C0.0313240767,5.09878275 0,5.24578311 0,5.3999835 L0,6.54898637 L0,6.5999865 C0,7.26298816 0.528857487,7.7999895 1.18181764,7.7999895 L4.91340686,7.7999895 L4.34969166,10.5413964 C4.33728848,10.6026565 4.33017985,10.6655967 4.33017985,10.7310568 C4.33017985,10.9794574 4.4294348,11.204458 4.59018564,11.3670584 L5.21654308,12 L9.1082745,8.04839012 C9.32218349,7.83118958 9.45454707,7.53118883 9.45454707,7.199988 L9.45454707,1.200003 C9.45454707,0.537595344 8.92509276,0 8.27272942,0 Z" id="thumbs-down"></path>
                        </g>
                    </g>
                </g>
            </g>
        </g>
    </g>
</svg>