<?xml version="1.0" encoding="UTF-8" standalone="no"?>
<svg width="12px" height="14px" viewBox="0 0 12 14" version="1.1" xmlns="http://www.w3.org/2000/svg" xmlns:xlink="http://www.w3.org/1999/xlink">
    <!-- Generator: Sketch 48.2 (47327) - http://www.bohemiancoding.com/sketch -->
    <title>trustees</title>
    <desc>Created with Sketch.</desc>
    <defs></defs>
    <g id="LiquidRe-–-US-Investors" stroke="none" stroke-width="1" fill="none" fill-rule="evenodd" transform="translate(-41.000000, -156.000000)">
        <g id="Sidebar" transform="translate(24.000000, 99.000000)" fill="#1875F0" fill-rule="nonzero">
            <g id="Links" transform="translate(16.000000, 0.000000)">
                <g id="Trustee" transform="translate(1.000000, 56.000000)">
                    <path d="M12,3.59199007 L12,9.80118407 C12,10.5447982 11.5585263,11.4242802 10.9642105,11.8582938 L7.14505263,14.6440627 C6.49515789,15.1181684 5.50547368,15.119123 4.85431579,14.6440627 L1.03610526,11.8579756 C0.443684211,11.4258712 0,10.5419345 0,9.80086588 L0,3.59199007 C0,2.78060109 0.571263158,1.97080306 1.33136842,1.72802275 C1.58589474,1.63065607 2.02578947,1.49510638 2.62610526,1.36178403 C3.64421053,1.13554969 4.77789474,1 6,1 C7.22210526,1 8.35578947,1.13554969 9.37389474,1.36178403 C9.97705263,1.49574276 10.4182105,1.63192883 10.6721053,1.72929551 C11.4268421,1.97907604 12,2.78537396 12,3.59199007 Z M1.26315789,3.59199007 L1.26315789,9.80118407 C1.26315789,10.1359218 1.51421053,10.6354829 1.77694737,10.8273525 L5.59547368,13.6140759 C5.80421053,13.7661716 6.19642105,13.7658534 6.40452632,13.6140759 L10.2230526,10.8273525 C10.4883158,10.6335737 10.7368421,10.1384673 10.7368421,9.80118407 L10.7368421,3.59199007 C10.7368421,3.33011826 10.5078947,3.01097192 10.2735789,2.93715143 L10.2344211,2.92346919 C10.1425425,2.88934922 10.0496576,2.85804597 9.95589474,2.82960262 C9.67433853,2.7428494 9.38936095,2.66779881 9.10168421,2.60464104 C8.16947368,2.39749821 7.12642105,2.27276704 6,2.27276704 C4.87357895,2.27276704 3.83052632,2.39749821 2.89831579,2.60464104 C2.61063905,2.66779881 2.32566147,2.7428494 2.04410526,2.82960262 C1.902,2.87383127 1.80789474,2.90692322 1.76557895,2.92346919 L1.71821053,2.93937877 C1.48926316,3.00874458 1.26315789,3.32598176 1.26315789,3.59230827 L1.26315789,3.59199007 Z M3.92021053,7.2321038 L5.05263158,8.37313945 L8.07978947,5.32295325 C8.32760772,5.08178158 8.72152723,5.08523067 8.96514857,5.3307053 C9.20876992,5.57617994 9.21219297,5.97309609 8.97284211,6.22279954 L5.49915789,9.7229089 C5.25252641,9.97134153 4.85273675,9.97134153 4.60610526,9.7229089 L3.02715789,8.1319501 C2.78780703,7.88224664 2.79123008,7.48533049 3.03485143,7.23985586 C3.27847277,6.99438123 3.67239228,6.99093214 3.92021053,7.2321038 Z" id="trustees"></path>
                </g>
            </g>
        </g>
    </g>
</svg>