<?xml version="1.0" encoding="UTF-8" standalone="no"?>
<svg width="15px" height="18px" viewBox="0 0 15 18" version="1.1" xmlns="http://www.w3.org/2000/svg" xmlns:xlink="http://www.w3.org/1999/xlink">
    <!-- Generator: Sketch 48.2 (47327) - http://www.bohemiancoding.com/sketch -->
    <title>upload-18px</title>
    <desc>Created with Sketch.</desc>
    <defs></defs>
    <g id="LiquidRe-–-All-IREOs---Pending---Apply-as-Trustee" stroke="none" stroke-width="1" fill="none" fill-rule="evenodd" transform="translate(-473.000000, -538.000000)">
        <g id="Modal-Window" transform="translate(401.000000, 120.000000)" fill="#1875F0" fill-rule="nonzero">
            <g id="Apply" transform="translate(48.000000, 48.000000)">
                <g id="Upload" transform="translate(0.000000, 352.000000)">
                    <path d="M38.1627907,36 L24.8372093,36 C24.3748314,36 24,35.6251686 24,35.1627907 L24,35.1627907 C24,34.7004128 24.3748314,34.3255814 24.8372093,34.3255814 L38.1627907,34.3255814 C38.6251686,34.3255814 39,34.7004128 39,35.1627907 L39,35.1627907 C39,35.6251686 38.6251686,36 38.1627907,36 Z M32.3823529,20.8584114 L32.3823529,30.1432001 C32.3823529,30.6035538 31.9907075,30.9767442 31.5,30.9767442 C31.0126899,30.9767442 30.6176471,30.6000429 30.6176471,30.1432001 L30.6176471,20.8584114 L27.2709766,24.0338569 C26.9263963,24.3608074 26.3677213,24.3608074 26.0231411,24.0338569 C25.6785608,23.7069063 25.6785608,23.1768147 26.0231411,22.8498641 L30.8760822,18.2452129 C31.2206625,17.9182624 31.7793375,17.9182624 32.1239178,18.2452129 L36.9768589,22.8498641 C37.3214392,23.1768147 37.3214392,23.7069063 36.9768589,24.0338569 C36.6322787,24.3608074 36.0736037,24.3608074 35.7290234,24.0338569 L32.3823529,20.8584114 Z" id="upload-18px"></path>
                </g>
            </g>
        </g>
    </g>
</svg>