<?xml version="1.0" encoding="UTF-8" standalone="no"?>
<svg width="19px" height="24px" viewBox="0 0 19 24" version="1.1" xmlns="http://www.w3.org/2000/svg" xmlns:xlink="http://www.w3.org/1999/xlink">
    <!-- Generator: Sketch 48.2 (47327) - http://www.bohemiancoding.com/sketch -->
    <title>upload-24px</title>
    <desc>Created with Sketch.</desc>
    <defs></defs>
    <g id="LiquidRe-–-Verify-Identity" stroke="none" stroke-width="1" fill="none" fill-rule="evenodd" transform="translate(-711.000000, -989.000000)">
        <g id="Verification" transform="translate(250.000000, 83.000000)" fill="#1875F0" fill-rule="nonzero">
            <g id="Upload" transform="translate(268.000000, 874.000000)">
                <path d="M210.883721,56 L194.116279,56 C193.499775,56 193,55.5002248 193,54.8837209 L193,54.8837209 C193,54.267217 193.499775,53.7674419 194.116279,53.7674419 L210.883721,53.7674419 C211.500225,53.7674419 212,54.267217 212,54.8837209 L212,54.8837209 C212,55.5002248 211.500225,56 210.883721,56 Z M203.617647,35.8112151 L203.617647,48.1909334 C203.617647,48.8047384 203.121563,49.3023256 202.5,49.3023256 C201.882741,49.3023256 201.382353,48.8000572 201.382353,48.1909334 L201.382353,35.8112151 L197.143237,40.0451425 C196.706769,40.4810765 195.999114,40.4810765 195.562645,40.0451425 C195.126177,39.6092084 195.126177,38.9024195 195.562645,38.4664854 L201.709704,32.3269506 C202.146172,31.8910165 202.853827,31.8910165 203.290296,32.3269506 L209.437355,38.4664854 C209.873823,38.9024195 209.873823,39.6092084 209.437355,40.0451425 C209.000886,40.4810765 208.293231,40.4810765 207.856763,40.0451425 L203.617647,35.8112151 Z" id="upload-24px"></path>
            </g>
        </g>
    </g>
</svg>