<?xml version="1.0" encoding="UTF-8" standalone="no"?>
<svg width="34px" height="34px" viewBox="0 0 34 34" version="1.1" xmlns="http://www.w3.org/2000/svg" xmlns:xlink="http://www.w3.org/1999/xlink">
    <!-- Generator: Sketch 48.2 (47327) - http://www.bohemiancoding.com/sketch -->
    <title>zoom-out</title>
    <desc>Created with Sketch.</desc>
    <defs></defs>
    <g id="LiquidRe-–-IREOs-Map" stroke="none" stroke-width="1" fill="none" fill-rule="evenodd" transform="translate(-340.000000, -687.000000)">
        <g id="Dashboard" transform="translate(250.000000, 83.000000)">
            <g id="Map" transform="translate(0.000000, 98.000000)">
                <g id="Navigation" transform="translate(48.000000, 506.000000)">
                    <g id="zoom-out" transform="translate(42.000000, 0.000000)">
                        <path d="M5.1277704,-2.07168062e-16 L28.8722296,2.07168062e-16 C30.6552671,-1.2037061e-16 31.3018396,0.185651222 31.9536914,0.534265408 C32.6055433,0.882879593 33.1171204,1.39445674 33.4657346,2.04630859 C33.8143488,2.69816044 34,3.34473292 34,5.1277704 L34,28.8722296 C34,30.6552671 33.8143488,31.3018396 33.4657346,31.9536914 C33.1171204,32.6055433 32.6055433,33.1171204 31.9536914,33.4657346 C31.3018396,33.8143488 30.6552671,34 28.8722296,34 L5.1277704,34 C3.34473292,34 2.69816044,33.8143488 2.04630859,33.4657346 C1.39445674,33.1171204 0.882879593,32.6055433 0.534265408,31.9536914 C0.185651222,31.3018396 8.02470732e-17,30.6552671 -1.38112041e-16,28.8722296 L1.38112041e-16,5.1277704 C-8.02470732e-17,3.34473292 0.185651222,2.69816044 0.534265408,2.04630859 C0.882879593,1.39445674 1.39445674,0.882879593 2.04630859,0.534265408 C2.69816044,0.185651222 3.34473292,1.2037061e-16 5.1277704,-2.07168062e-16 Z" id="Rectangle-3" fill="#3D90FD"></path>
                        <polygon id="Shape" fill="#FFFFFF" fill-rule="nonzero" points="24 18 10 18 10 16 24 16"></polygon>
                    </g>
                </g>
            </g>
        </g>
    </g>
</svg>